<svg id="Layer_1" data-name="Layer 1" xmlns="http://www.w3.org/2000/svg" xmlns:xlink="http://www.w3.org/1999/xlink" viewBox="0 0 200 200"><defs><style>.cls-1{font-size:12px;fill:#fff;font-family:MyriadPro-Regular, Myriad Pro;}.cls-2{letter-spacing:0em;}.cls-3{letter-spacing:0em;}.cls-4{letter-spacing:0em;}.cls-5{opacity:0.5;fill:url(#linear-gradient);}.cls-6{fill:#bcbcbc;}.cls-7{fill:none;stroke:#231f20;stroke-miterlimit:10;stroke-width:0.55px;}.cls-8{fill:#494949;}.cls-9{fill:#dee23b;}.cls-10{fill:red;}.cls-11{fill:#a0a8af;}.cls-12{fill:#ccd7e2;}.cls-13{fill:#fcfcfc;}.cls-14{fill:#232621;}</style><linearGradient id="linear-gradient" x1="13.7" y1="100" x2="186.76" y2="100" gradientUnits="userSpaceOnUse"><stop offset="0" stop-color="#24b700"/><stop offset="1" stop-color="#15aaff"/></linearGradient></defs><title>CIP Application</title><text class="cls-1" transform="translate(63.32 210)">CIP <tspan class="cls-2" x="18.76" y="0">A</tspan><tspan x="26.06" y="0">pplic</tspan><tspan class="cls-3" x="50.74" y="0">a</tspan><tspan class="cls-4" x="56.47" y="0">tion</tspan></text><circle class="cls-5" cx="100.23" cy="100" r="86.53"/><path class="cls-6" d="M100,200A100,100,0,1,1,200,100,100.11,100.11,0,0,1,100,200ZM100,7.69A92.31,92.31,0,1,0,192.31,100,92.41,92.41,0,0,0,100,7.69Z"/><line class="cls-7" x1="86.65" y1="146.83" x2="86.62" y2="146.8"/><path class="cls-8" d="M43.18,42.66H55.87a0,0,0,0,1,0,0V78.78a0,0,0,0,1,0,0h0A12.69,12.69,0,0,1,43.18,66.09V42.66A0,0,0,0,1,43.18,42.66Z"/><path class="cls-8" d="M120,42.66h12.69a0,0,0,0,1,0,0V66.09A12.69,12.69,0,0,1,120,78.78h0a0,0,0,0,1,0,0V42.66A0,0,0,0,1,120,42.66Z"/><path class="cls-9" d="M112.22,128.68v6.17H63.68v-6.17A5.69,5.69,0,0,1,69.36,123h9.25V106.68a25,25,0,0,0,18.69,0V123h9.24A5.69,5.69,0,0,1,112.22,128.68Z"/><path class="cls-8" d="M62.6,136.11h50.7a6,6,0,0,1,6,6v7.85a0,0,0,0,1,0,0H56.64a0,0,0,0,1,0,0v-7.85A6,6,0,0,1,62.6,136.11Z"/><path class="cls-9" d="M57.89,31.5H118a0,0,0,0,1,0,0V76.06A30.06,30.06,0,0,1,88,106.12h0A30.06,30.06,0,0,1,57.89,76.06V31.5a0,0,0,0,1,0,0Z"/><polygon class="cls-10" points="87.95 55.75 92.16 64.27 101.56 65.64 94.76 72.28 96.36 81.64 87.95 77.22 79.54 81.64 81.14 72.28 74.34 65.64 83.75 64.27 87.95 55.75"/><rect class="cls-11" x="111.94" y="83.94" width="50.75" height="75.95" rx="3.55"/><rect class="cls-12" x="109.61" y="86.16" width="50.75" height="75.95" rx="3.55"/><path class="cls-13" d="M147.63,111.63a1.89,1.89,0,0,0-1-1.37c-1.78-.89-5.67-2.2-5.67-2.2v-1.28l.1-.08a3.73,3.73,0,0,0,1.42-2.37l0-.14h.11a1.44,1.44,0,0,0,1.33-.89,1.65,1.65,0,0,0,.19-.76,1.39,1.39,0,0,0-.1-.53.76.76,0,0,0-.29-.47l-.36-.22.09-.39A4.52,4.52,0,0,0,139,95.48h-.42a4.52,4.52,0,0,0-4.49,5.45l.09.39-.36.22a.76.76,0,0,0-.29.47,1.39,1.39,0,0,0-.1.53,1.53,1.53,0,0,0,.19.76,1.44,1.44,0,0,0,1.33.89H135l0,.14a3.75,3.75,0,0,0,1.41,2.37l.11.08v1.28s-3.89,1.31-5.67,2.2a1.89,1.89,0,0,0-1,1.37,42.53,42.53,0,0,0-.36,4.77H148A42.53,42.53,0,0,0,147.63,111.63Z"/><path d="M146.27,140.88H133a1.12,1.12,0,0,0,0,2.23h13.23a1.12,1.12,0,0,0,0-2.23Z"/><path d="M146.27,133.08H120.52a1.12,1.12,0,1,0,0,2.23h25.76a1.12,1.12,0,0,0,0-2.23Z"/><path d="M146.27,125.29H120.52a1.12,1.12,0,1,0,0,2.23h25.76a1.12,1.12,0,0,0,0-2.23Z"/><path class="cls-14" d="M179.27,105.91a5.15,5.15,0,0,0-7.2,1.09h0l-18.33,24.86a1.24,1.24,0,0,0-.21.45l-2.17,9.56a1.23,1.23,0,0,0,1.81,1.33l8.49-4.89A1.24,1.24,0,0,0,162,138l18.32-24.86A5.15,5.15,0,0,0,179.27,105.91Zm-24.15,33.34-.53-.53.92-4,3.3,2.44Z"/></svg>