<svg id="Layer_1" data-name="Layer 1" xmlns="http://www.w3.org/2000/svg" xmlns:xlink="http://www.w3.org/1999/xlink" viewBox="0 0 200 200"><defs><style>.cls-1{font-size:12px;font-family:MyriadPro-Regular, Myriad Pro;}.cls-1,.cls-8{fill:#fff;}.cls-2{letter-spacing:0em;}.cls-3{letter-spacing:-0.01em;}.cls-4{opacity:0.5;fill:url(#linear-gradient);}.cls-5{fill:#bcbcbc;}.cls-6{fill:#c1c1c1;}.cls-7{fill:#dbdbdb;}.cls-9{fill:#4f4b4c;}.cls-10{fill:#ffec00;stroke:#ed1c24;stroke-miterlimit:10;stroke-width:0.5px;}.cls-11{fill:#1787ce;}.cls-12{fill:#e91d18;}.cls-13{fill:#fca219;}</style><linearGradient id="linear-gradient" x1="13.69" y1="100" x2="186.76" y2="100" gradientUnits="userSpaceOnUse"><stop offset="0" stop-color="#24b700"/><stop offset="1" stop-color="#15aaff"/></linearGradient></defs><title>Circular</title><text class="cls-1" transform="translate(86.29 210)"><tspan class="cls-2">C</tspan><tspan x="6.92" y="0">i</tspan><tspan class="cls-3" x="9.73" y="0">r</tspan><tspan x="13.54" y="0">culer</tspan></text><circle class="cls-4" cx="100.23" cy="100" r="86.53"/><path class="cls-5" d="M100,200A100,100,0,1,1,200,100,100.11,100.11,0,0,1,100,200ZM100,7.69A92.31,92.31,0,1,0,192.3,100,92.41,92.41,0,0,0,100,7.69Z"/><rect class="cls-6" x="50.23" y="29.49" width="100" height="140.84" rx="4"/><rect class="cls-7" x="55.19" y="29.49" width="95.04" height="140.84" rx="3.9"/><rect class="cls-8" x="60.64" y="29.49" width="89.59" height="140.84" rx="3.79"/><path class="cls-9" d="M76.87,49.91h63.39a7.32,7.32,0,0,1,7.32,7.32v0a7.32,7.32,0,0,1-7.32,7.32H76.87a0,0,0,0,1,0,0V49.91a0,0,0,0,1,0,0Z"/><path class="cls-9" d="M76.64,75.42H132.3a6.89,6.89,0,0,1,6.89,6.89v.87a6.89,6.89,0,0,1-6.89,6.89H76.64a0,0,0,0,1,0,0V75.42a0,0,0,0,1,0,0Z"/><path class="cls-9" d="M76.64,99.91h60.49a7.16,7.16,0,0,1,7.16,7.16v.32a7.16,7.16,0,0,1-7.16,7.16H76.64a0,0,0,0,1,0,0V99.91A0,0,0,0,1,76.64,99.91Z"/><path class="cls-9" d="M76.64,124.41h40.53a5.94,5.94,0,0,1,5.94,5.94v2.77a5.94,5.94,0,0,1-5.94,5.94H76.64a0,0,0,0,1,0,0V124.41A0,0,0,0,1,76.64,124.41Z"/><path class="cls-9" d="M76.64,148.9H132.3a6.89,6.89,0,0,1,6.89,6.89v.87a6.89,6.89,0,0,1-6.89,6.89H76.64a0,0,0,0,1,0,0V148.9a0,0,0,0,1,0,0Z"/><polygon class="cls-10" points="69.47 50.54 70.75 54.14 74.21 52.5 72.56 55.95 76.17 57.24 72.56 58.52 74.21 61.98 70.75 60.33 69.47 63.94 68.19 60.33 64.73 61.98 66.37 58.52 62.77 57.24 66.37 55.95 64.73 52.5 68.19 54.14 69.47 50.54"/><polygon class="cls-10" points="69.47 76.04 70.75 79.65 74.21 78.01 72.56 81.46 76.17 82.75 72.56 84.03 74.21 87.48 70.75 85.84 69.47 89.44 68.19 85.84 64.73 87.48 66.37 84.03 62.77 82.75 66.37 81.46 64.73 78.01 68.19 79.65 69.47 76.04"/><polygon class="cls-10" points="69.47 100.54 70.75 104.14 74.21 102.5 72.56 105.95 76.17 107.24 72.56 108.52 74.21 111.97 70.75 110.33 69.47 113.94 68.19 110.33 64.73 111.97 66.37 108.52 62.77 107.24 66.37 105.95 64.73 102.5 68.19 104.14 69.47 100.54"/><polygon class="cls-10" points="69.47 125.03 70.75 128.63 74.21 126.99 72.56 130.45 76.17 131.73 72.56 133.01 74.21 136.47 70.75 134.82 69.47 138.43 68.19 134.82 64.73 136.47 66.37 133.01 62.77 131.73 66.37 130.45 64.73 126.99 68.19 128.63 69.47 125.03"/><polygon class="cls-10" points="69.47 149.52 70.75 153.13 74.21 151.48 72.56 154.94 76.17 156.22 72.56 157.5 74.21 160.96 70.75 159.31 69.47 162.92 68.19 159.31 64.73 160.96 66.37 157.5 62.77 156.22 66.37 154.94 64.73 151.48 68.19 153.13 69.47 149.52"/><path d="M89.63,47.34H86.11l-4.7-7.09v7.09H77.88V34.65h3.53l4.7,7.18V34.65h3.52Z"/><path d="M94.46,46.63a6.21,6.21,0,0,1-2.37-2.32,6.92,6.92,0,0,1,0-6.72,6.12,6.12,0,0,1,2.37-2.31,6.9,6.9,0,0,1,6.56,0,6.13,6.13,0,0,1,2.35,2.31,7,7,0,0,1,0,6.72A6.19,6.19,0,0,1,101,46.63a6.8,6.8,0,0,1-6.55,0Zm5.41-3.32a4,4,0,0,0,0-4.74,3,3,0,0,0-4.28,0,4,4,0,0,0,0,4.75,3.05,3.05,0,0,0,4.28,0Z"/><path d="M115.37,34.65v2.81H112v9.88h-3.53V37.46h-3.35V34.65Z"/><path d="M120.22,34.65V47.34h-3.53V34.65Z"/><path d="M122.58,37.63a5.65,5.65,0,0,1,2.23-2.29,6.63,6.63,0,0,1,3.31-.81,6.3,6.3,0,0,1,4,1.26,5.77,5.77,0,0,1,2.09,3.45h-3.8a2.55,2.55,0,0,0-.94-1.1,2.59,2.59,0,0,0-1.4-.37,2.43,2.43,0,0,0-2,.87,3.5,3.5,0,0,0-.73,2.33,3.53,3.53,0,0,0,.73,2.35,2.43,2.43,0,0,0,2,.87,2.51,2.51,0,0,0,1.4-.38,2.46,2.46,0,0,0,.94-1.09h3.8a5.72,5.72,0,0,1-2.09,3.44,6.25,6.25,0,0,1-4,1.27,6.53,6.53,0,0,1-3.31-.82,5.63,5.63,0,0,1-2.23-2.28,7.58,7.58,0,0,1,0-6.7Z"/><path d="M139.4,37.48v2.07h4v2.68h-4v2.29H144v2.82h-8.11V34.65H144v2.83Z"/><polyline class="cls-11" points="66.55 43.44 66.55 47.35 64.88 47.35 64.88 43.17"/><polygon class="cls-12" points="65.72 37.75 64.05 37.75 64.05 43.17 65.72 43.17 72.4 45.26 72.4 35.66 65.72 37.75"/><rect class="cls-13" x="64.05" y="37.75" width="1.67" height="5.43"/><path d="M72.65,35.32a.43.43,0,0,0-.38-.06l-6.61,2.07H64.05a.42.42,0,0,0-.42.42h0v5.42a.42.42,0,0,0,.42.42h.42v3.76a.41.41,0,0,0,.41.41h1.67a.41.41,0,0,0,.42-.41h0V44l5.3,1.66a.43.43,0,0,0,.53-.28.5.5,0,0,0,0-.12v-9.6A.45.45,0,0,0,72.65,35.32Zm-8.18,2.84h.83v4.6h-.83Zm1.67,8.77H65.3V43.59h.36l.48.15ZM72,44.69l-5.84-1.82V38.05L72,36.23Z"/><rect x="74.07" y="39.83" width="2.5" height="0.83"/><rect x="74.07" y="36.91" width="2.5" height="0.83"/><rect x="74.07" y="42.76" width="2.5" height="0.83"/></svg>