<svg id="Layer_1" data-name="Layer 1" xmlns="http://www.w3.org/2000/svg" xmlns:xlink="http://www.w3.org/1999/xlink" viewBox="0 0 200 200"><defs><style>.cls-1{opacity:0.5;fill:url(#linear-gradient);}.cls-2{fill:#4f4b4c;}.cls-3{fill:#bcbcbc;}.cls-4{fill:#f2f2f2;}.cls-5{fill:#43579e;}.cls-6{fill:#2c386d;}.cls-7{fill:#31333a;}.cls-8{fill:#62646b;}.cls-9{font-size:10px;fill:#fff;font-family:Poppins-ExtraBold, Poppins;font-weight:800;}</style><linearGradient id="linear-gradient" x1="13.7" y1="100" x2="186.76" y2="100" gradientUnits="userSpaceOnUse"><stop offset="0" stop-color="#24b700"/><stop offset="1" stop-color="#15aaff"/></linearGradient></defs><title>Dashboard</title><circle class="cls-1" cx="100.23" cy="100" r="86.53"/><path class="cls-2" d="M135.61,154.11v16.23H64.9V154.11H91.06V140.58a9.19,9.19,0,1,1,18.38,0v13.53Z"/><path class="cls-3" d="M100,200A100,100,0,1,1,200,100,100.11,100.11,0,0,1,100,200ZM100,7.69A92.31,92.31,0,1,0,192.31,100,92.41,92.41,0,0,0,100,7.69Z"/><rect class="cls-2" x="29.83" y="49.91" width="140.85" height="85.36"/><rect class="cls-4" x="32.63" y="53.8" width="135.24" height="77.58"/><rect class="cls-5" x="33.58" y="53.8" width="134.3" height="9.58"/><rect class="cls-6" x="32.63" y="53.8" width="32.24" height="77.58"/><rect class="cls-7" x="65.92" y="64.6" width="34.34" height="4.98" rx="2"/><rect class="cls-7" x="65.92" y="75.72" width="31.06" height="4.5" rx="1.81"/><rect class="cls-7" x="65.92" y="85.52" width="31.06" height="4.5" rx="1.81"/><rect class="cls-7" x="65.92" y="95.31" width="31.06" height="4.5" rx="1.81"/><rect class="cls-7" x="65.92" y="105.1" width="31.06" height="4.5" rx="1.81"/><rect class="cls-7" x="65.92" y="114.9" width="31.06" height="4.5" rx="1.81"/><rect class="cls-7" x="100.26" y="75.72" width="31.06" height="4.5" rx="1.81"/><rect class="cls-7" x="100.26" y="85.52" width="31.06" height="4.5" rx="1.81"/><rect class="cls-7" x="100.26" y="95.31" width="31.06" height="4.5" rx="1.81"/><rect class="cls-7" x="100.26" y="105.1" width="31.06" height="4.5" rx="1.81"/><rect class="cls-7" x="100.26" y="114.9" width="31.06" height="4.5" rx="1.81"/><rect class="cls-7" x="134.6" y="75.72" width="31.06" height="4.5" rx="1.81"/><rect class="cls-7" x="134.6" y="85.52" width="31.06" height="4.5" rx="1.81"/><rect class="cls-7" x="134.6" y="95.31" width="31.06" height="4.5" rx="1.81"/><rect class="cls-7" x="134.6" y="105.1" width="31.06" height="4.5" rx="1.81"/><rect class="cls-7" x="134.6" y="114.9" width="31.06" height="4.5" rx="1.81"/><circle class="cls-8" cx="48.75" cy="69.09" r="10.09"/><rect class="cls-8" x="34.9" y="83.43" width="20.94" height="4.34" rx="0.94"/><rect class="cls-8" x="34.9" y="90.42" width="26.81" height="4.34" rx="1.06"/><rect class="cls-8" x="34.9" y="97.42" width="20.94" height="4.34" rx="0.94"/><rect class="cls-8" x="34.9" y="104.41" width="18.38" height="4.34" rx="0.88"/><rect class="cls-8" x="34.9" y="111.41" width="26.81" height="4.34" rx="1.06"/><text class="cls-9" transform="translate(65.92 62.02)">Dashboard</text></svg>