<svg id="Layer_1" data-name="Layer 1" xmlns="http://www.w3.org/2000/svg" viewBox="0 0 200 200"><defs><style>.cls-1{fill:#fff;}.cls-2{fill:#1fe544;}.cls-3{fill:#278441;}.cls-4{fill:#79d186;}</style></defs><title>tea-garden-external-panel</title><rect class="cls-1" width="200" height="200" rx="30"/><path class="cls-2" d="M165.73,86.15C137.47,155,106,167.88,92.27,170a1.52,1.52,0,0,1-1.48-2.35c.22-.33.43-.66.64-1a1.48,1.48,0,0,1,.44-.46c2.6-1.74,5-3.49,7.53-5.42a151,151,0,0,0,12.9-11.1c1.8-1.8,3.5-3.5,5.1-5.4h0l2-.29h.1c1.28-.1,2.57-.2,3.85-.2a51.58,51.58,0,0,1,7.8.8,26.64,26.64,0,0,0-3.8-1c-1.28-.2-2.55-.3-3.93-.39h-.14q-.85,0-1.71.06a1.51,1.51,0,0,1-1.28-2.47c1.1-1.32,2.16-2.65,3.16-4a65.58,65.58,0,0,0,8.2-14.9,67.37,67.37,0,0,1-4.27,7.26.35.35,0,0,0-.05.08A67,67,0,0,1,122.5,136a148.2,148.2,0,0,1-11.3,12.5c-2.4,2.3-4.8,4.6-7.3,6.8h0a20,20,0,0,0,1.1-4.2,42,42,0,0,0,.6-6.1,31.4,31.4,0,0,0-.5-6.1c-.1-1-.39-2-.59-3,0,0,0-.05,0-.08-.3-1-.49-2-.79-2.86.3,2,.6,4,.8,6s.3,4,.3,6-.2,4-.4,6c-.18,1.34-.44,2.68-.7,4a1.63,1.63,0,0,1-.46.83c-1.48,1.37-3,2.67-4.54,4l-1.32,1.11A1.52,1.52,0,0,1,95,159.28c4.32-13,3.9-30.62,3.39-38.71a1.53,1.53,0,0,1,.53-1.27C120.46,101,153.46,88,163.8,84.14A1.52,1.52,0,0,1,165.73,86.15Z"/><path class="cls-1" d="M92,170.17a1.64,1.64,0,0,1-1.35-2.56c.21-.31.43-.65.64-1a1.9,1.9,0,0,1,.48-.5c2.56-1.71,5-3.43,7.52-5.41a147.75,147.75,0,0,0,12.89-11.09c1.8-1.8,3.5-3.49,5.09-5.39l0,0,2.09-.3h.11c1.26-.1,2.56-.2,3.86-.2a42.19,42.19,0,0,1,6.13.55,17.21,17.21,0,0,0-2.15-.5c-1.26-.19-2.52-.29-3.92-.39h-.13c-.57,0-1.14,0-1.7.06a1.65,1.65,0,0,1-1.58-.89,1.61,1.61,0,0,1,.2-1.79c1.16-1.4,2.21-2.74,3.15-4a67.62,67.62,0,0,0,7.4-12.92h0a45.72,45.72,0,0,1-3.27,5.43l0,.06a53.06,53.06,0,0,1-4.09,5.76l-.79,1a148.1,148.1,0,0,1-11.31,12.51l0,0c-2.35,2.25-4.78,4.58-7.27,6.77l-.38.34.18-.48a19.9,19.9,0,0,0,1.1-4.17,41.62,41.62,0,0,0,.59-6V145a30.86,30.86,0,0,0-.49-6.07,17,17,0,0,0-.38-2c-.07-.32-.15-.64-.21-1,0,0,0-.05,0-.08-.09-.29-.17-.59-.25-.88.19,1.32.37,2.66.5,4,.2,2,.3,4,.3,6s-.2,4-.39,6v0c-.18,1.36-.44,2.73-.7,4a1.69,1.69,0,0,1-.5.89c-1.44,1.33-2.92,2.63-4.54,4L97.46,161a1.61,1.61,0,0,1-2,.09,1.59,1.59,0,0,1-.63-1.85c4.41-13.24,3.84-31.45,3.39-38.67a1.63,1.63,0,0,1,.57-1.36c21.85-18.49,55.25-31.61,65-35.19a1.59,1.59,0,0,1,1.74.4,1.65,1.65,0,0,1,.34,1.78h0c-12.3,30-26.5,52.51-42.21,67-13,12-24.23,15.84-31.34,17Zm25.43-25.75c-1.59,1.89-3.28,3.58-5.07,5.37A151.3,151.3,0,0,1,99.48,160.9c-2.58,2-5,3.71-7.54,5.42a1.45,1.45,0,0,0-.4.42c-.22.36-.44.7-.65,1a1.39,1.39,0,0,0,1.36,2.15c7.08-1.11,18.24-4.93,31.21-16.89,15.68-14.46,29.87-37,42.15-66.91h0a1.39,1.39,0,0,0-.29-1.51,1.37,1.37,0,0,0-1.47-.34c-9.71,3.58-43.07,16.68-64.89,35.15a1.43,1.43,0,0,0-.49,1.16c.46,7.23,1,25.48-3.39,38.76a1.33,1.33,0,0,0,.53,1.56,1.37,1.37,0,0,0,1.69-.07l1.32-1.1c1.62-1.34,3.1-2.63,4.53-4a1.42,1.42,0,0,0,.43-.76c.25-1.28.52-2.65.7-4,.19-2,.39-4,.39-6s-.1-4-.29-6-.51-4-.8-6l.24-.06c.17.51.3,1,.44,1.59.11.41.22.84.35,1.27a.3.3,0,0,1,0,.1l.21,1a13.7,13.7,0,0,1,.38,2,30.26,30.26,0,0,1,.5,6.11v.1a40.66,40.66,0,0,1-.6,6,19.86,19.86,0,0,1-.93,3.76c2.36-2.09,4.66-4.3,6.89-6.44l0,0a146.05,146.05,0,0,0,11.29-12.49l.79-1a53.72,53.72,0,0,0,4.08-5.74l.06-.08a44.93,44.93,0,0,0,3.25-5.4c.33-.61.66-1.23,1-1.85l.23.1a65.69,65.69,0,0,1-8.22,14.93c-.94,1.26-2,2.6-3.16,4a1.36,1.36,0,0,0-.16,1.52,1.34,1.34,0,0,0,1.33.75c.57,0,1.15-.06,1.72-.06h.15c1.4.1,2.67.2,3.94.4a22.23,22.23,0,0,1,3.35.85l.47.15-.06.24a52.49,52.49,0,0,0-7.78-.8c-1.29,0-2.59.1-3.84.2h-.09Z"/><path class="cls-3" d="M55.09,32.87C49.42,53.94,21.23,169.54,84.59,170.4a1.55,1.55,0,0,0,1.19-.55c4.12-5,31.68-44.1-27.94-137.4A1.52,1.52,0,0,0,55.09,32.87Z"/><path class="cls-1" d="M85.7,150a154.44,154.44,0,0,1-.5,20.4c-.1-3.4-.2-6.8-.4-10.2s-.4-6.8-.7-10.2c-.19-2.44-.46-4.8-.75-7.23a1.55,1.55,0,0,0-.36-.83,35.26,35.26,0,0,0-3.59-3.64c-1.8-1.6-3.7-3.1-5.6-4.5s-4-2.7-6.1-3.9-4.3-2.3-6.5-3.4c1.18.39,2.26.79,3.44,1.18l.12,0A29.85,29.85,0,0,1,68,129.2a50.16,50.16,0,0,1,6.3,3.8,43,43,0,0,1,5.6,4.8l0,0a1.52,1.52,0,0,0,2.63-1.23c-.3-2.23-.64-4.46-1-6.72a166.51,166.51,0,0,0-4.4-19.8c-1-3.2-2-6.5-3.3-9.6-1.1-3.2-2.8-6.2-4.2-9.3a80.57,80.57,0,0,1,9,18.4q1.11,3.23,2,6.48a1.52,1.52,0,0,0,2.79.37c.44-.78.91-1.54,1.38-2.28L85,114a36.32,36.32,0,0,1,3-3.53,26.73,26.73,0,0,1,3.6-3.1,52.58,52.58,0,0,0-6.2,7.1,33.36,33.36,0,0,0-2.5,4c-.32.65-.65,1.23-.92,1.85a1.55,1.55,0,0,0-.07.93c.66,2.74,1.22,5.48,1.69,8.32A155,155,0,0,1,85.7,150Z"/><path class="cls-4" d="M121.58,83h-6.26a1.52,1.52,0,0,1-1.52-1.52V31.12a1.52,1.52,0,0,1,1.52-1.52h6.26a1.52,1.52,0,0,1,1.52,1.52V81.48A1.52,1.52,0,0,1,121.58,83Z"/><path class="cls-4" d="M143.58,61.4H93.32a1.52,1.52,0,0,1-1.52-1.52V53.62a1.52,1.52,0,0,1,1.52-1.52h50.26a1.52,1.52,0,0,1,1.52,1.52v6.26A1.52,1.52,0,0,1,143.58,61.4Z"/></svg>