<svg id="Layer_1" data-name="Layer 1" xmlns="http://www.w3.org/2000/svg" viewBox="0 0 200 200"><defs><style>.cls-1{fill:#fff;}.cls-2{fill:#997456;}.cls-3{fill:#dee23b;}.cls-4{fill:#494949;}.cls-5{fill:red;}</style></defs><title>CIP-export-trophy</title><rect class="cls-1" width="200" height="200" rx="30"/><path class="cls-2" d="M49.77,84.52h0A16.31,16.31,0,0,1,33.42,68.25h0V38.19H49.77Z"/><path class="cls-2" d="M150.23,84.52h0V38.19h16.35V68.3A16.44,16.44,0,0,1,150.23,84.52Z"/><path class="cls-3" d="M136.17,148.62v7.92H63.93v-7.92c0-4,3.79-7.26,8.45-7.28H86.14V120.4a43.38,43.38,0,0,0,27.8,0v20.94H127.7C132.36,141.34,136.14,144.6,136.17,148.62Z"/><path class="cls-4" d="M150,175.91H50V165.8c0-4.22,4.25-7.64,9.5-7.64h81.24c5.25,0,9.52,3.39,9.54,7.61h0v10.14Z"/><path class="cls-3" d="M100.06,119.69h0c-26,0-47.09-17.28-47.09-38.6h0V23.84h94.18V81.12C147.13,102.43,126.05,119.69,100.06,119.69Z"/><polygon class="cls-5" points="100.07 50.81 106.85 64.5 121.87 66.71 110.97 77.32 113.47 92.49 100.07 85.26 86.53 92.49 89.03 77.32 78.13 66.71 93.3 64.5 100.07 50.81"/></svg>