<svg id="Layer_1" data-name="Layer 1" xmlns="http://www.w3.org/2000/svg" xmlns:xlink="http://www.w3.org/1999/xlink" viewBox="0 0 200 200"><defs><style>.cls-1{fill:#fff;}.cls-2{fill:#1fe544;}.cls-3{fill:#278441;}.cls-4{fill:url(#linear-gradient);}.cls-5{fill:#79d186;}.cls-6{fill:url(#linear-gradient-2);}.cls-7{fill:url(#linear-gradient-3);}.cls-8{fill:url(#linear-gradient-4);}.cls-9{fill:url(#linear-gradient-5);}</style><linearGradient id="linear-gradient" x1="6.98" y1="113.17" x2="120.04" y2="86.26" gradientUnits="userSpaceOnUse"><stop offset="0" stop-color="#8f8441"/><stop offset="1" stop-opacity="0"/></linearGradient><linearGradient id="linear-gradient-2" x1="54.38" y1="123.93" x2="85.15" y2="194.27" gradientUnits="userSpaceOnUse"><stop offset="0" stop-color="#378847"/><stop offset="1" stop-color="#fff"/></linearGradient><linearGradient id="linear-gradient-3" x1="78.91" y1="108.32" x2="76.49" y2="169.47" xlink:href="#linear-gradient-2"/><linearGradient id="linear-gradient-4" x1="55.13" y1="94.74" x2="76.07" y2="140.83" xlink:href="#linear-gradient-2"/><linearGradient id="linear-gradient-5" x1="53.57" y1="60.88" x2="73.87" y2="128.54" xlink:href="#linear-gradient-2"/></defs><title>7tea-garden-external-panel</title><rect class="cls-1" x="0.03" width="200" height="200" rx="30"/><path class="cls-2" d="M175.38,79.22C141.7,161.15,104.3,176.48,88,179a1.79,1.79,0,0,1-2-1.52h0a1.74,1.74,0,0,1,.29-1.27L87,175a1.68,1.68,0,0,1,.52-.54c3.09-2.08,5.94-4.16,9-6.46a179,179,0,0,0,15.35-13.24c2.14-2.14,4.16-4.16,6.07-6.42h0l2.38-.34h.11c1.52-.13,3.07-.25,4.59-.25a61.53,61.53,0,0,1,9.28,1,33.78,33.78,0,0,0-4.52-1.19c-1.53-.23-3-.35-4.68-.46h-.17a19.1,19.1,0,0,0-2,.07,1.81,1.81,0,0,1-1.93-1.66,1.84,1.84,0,0,1,.41-1.28c1.3-1.57,2.57-3.15,3.75-4.76a78,78,0,0,0,9.77-17.73,78,78,0,0,1-5.09,8.64v.1a80.48,80.48,0,0,1-5.84,8,177.2,177.2,0,0,1-13.45,14.88c-2.85,2.74-5.71,5.52-8.69,8.09h0a23.89,23.89,0,0,0,1.23-5,51.91,51.91,0,0,0,.72-7.25,38.47,38.47,0,0,0-.6-7.26,33.63,33.63,0,0,0-.71-3.57v-.09c-.35-1.19-.58-2.39-.93-3.41.35,2.38.71,4.76.94,7.14a61.88,61.88,0,0,1-.08,14.33c-.21,1.6-.52,3.19-.83,4.77a1.94,1.94,0,0,1-.55,1c-1.76,1.63-3.57,3.18-5.4,4.76l-1.58,1.32a1.79,1.79,0,0,1-2.84-1.93c5.13-15.45,4.63-36.42,4-46.06a1.89,1.89,0,0,1,.63-1.51c25.64-21.77,64.9-37.25,77.25-41.84A1.81,1.81,0,0,1,175.43,78v0h0A2,2,0,0,1,175.38,79.22Z"/><path class="cls-1" d="M87.63,179.2a1.94,1.94,0,0,1-1.94-1.94v-.06h0a2,2,0,0,1,.33-1.11c.25-.37.52-.77.76-1.19a2.46,2.46,0,0,1,.57-.59c3.05-2,6-4.09,9-6.44a172.54,172.54,0,0,0,15.34-13.24c2.14-2.14,4.17-4.16,6.06-6.42h0l2.48-.35h.14c1.5-.13,3-.25,4.59-.25a52.39,52.39,0,0,1,7.29.66,20.47,20.47,0,0,0-2.55-.59c-1.5-.23-3-.34-4.67-.46h-.15c-.69,0-1.36,0-2,.06a2,2,0,0,1-1.89-1.1,1.93,1.93,0,0,1,.24-2.13c1.39-1.66,2.63-3.25,3.75-4.76A79.9,79.9,0,0,0,133.73,124h0a51.65,51.65,0,0,1-3.88,6.46v.07a64.49,64.49,0,0,1-4.87,6.86l-.93,1.19a177.43,177.43,0,0,1-13.47,14.88h0c-2.79,2.67-5.68,5.46-8.65,8.06l-.45.4.21-.57a23.31,23.31,0,0,0,1.31-5,50.35,50.35,0,0,0,.71-7.14v-.07a36.66,36.66,0,0,0-.63-7.09,19.35,19.35,0,0,0-.45-2.39c-.09-.37-.18-.76-.26-1.19v-.09l-.3-1c.24,1.57.45,3.17.6,4.76a71,71,0,0,1,.36,7.14c0,2.38-.24,4.77-.47,7.14h0c-.21,1.62-.52,3.26-.83,4.77a2.05,2.05,0,0,1-.59,1.1c-1.71,1.58-3.48,3.12-5.4,4.76l-1.63,1.35A2,2,0,0,1,91,166.26c5.26-15.76,4.57-37.42,4-46a2,2,0,0,1,.67-1.62c26-22,65.75-37.61,77.35-41.87a1.89,1.89,0,0,1,2.07.48,1.94,1.94,0,0,1,.41,2.11h0C160.87,115,144,141.83,125.28,159.07,109.83,173.35,96.45,177.92,88,179.3Zm30.26-30.64c-1.89,2.2-3.9,4.26-6,6.39a184,184,0,0,1-15.33,13.24c-3.07,2.38-6,4.41-9,6.45a1.76,1.76,0,0,0-.48.5c-.26.43-.52.83-.78,1.19a1.67,1.67,0,0,0,.46,2.3,1.61,1.61,0,0,0,1.17.25c8.42-1.31,21.7-5.86,37.13-20.09,18.66-17.21,35.54-44,50.17-79.62h0a1.65,1.65,0,0,0-.36-1.8,1.57,1.57,0,0,0-1.74-.4c-11.55,4.26-51.26,19.87-77.25,41.83a1.67,1.67,0,0,0-.58,1.37c.54,8.61,1.19,30.33-4,46.13a1.6,1.6,0,0,0,.63,1.86,1.65,1.65,0,0,0,2-.09l1.57-1.3c1.93-1.6,3.68-3.14,5.38-4.77a1.65,1.65,0,0,0,.52-.91c.3-1.52.62-3.14.83-4.75.23-2.39.46-4.76.46-7.14s-.12-4.76-.34-7.14-.61-4.76-1-7.14l.29-.07c.19.61.35,1.18.51,1.89.14.48.27,1,.42,1.51v.12l.25,1.19a16.1,16.1,0,0,1,.45,2.38,34.76,34.76,0,0,1,.59,7.27v.12a47.57,47.57,0,0,1-.7,7.14,23.14,23.14,0,0,1-1.1,4.41c2.81-2.48,5.51-5.11,8.19-7.65h0a172.18,172.18,0,0,0,13.45-14.87l.93-1.19a64,64,0,0,0,4.86-6.83l.06-.09a52.52,52.52,0,0,0,3.88-6.43c.38-.72.78-1.46,1.19-2.21l.26.12a78.47,78.47,0,0,1-9.77,17.77c-1.11,1.49-2.39,3.09-3.77,4.75a1.64,1.64,0,0,0-.18,1.81,1.6,1.6,0,0,0,1.59.9c.67,0,1.36-.08,2-.08H125c1.67.12,3.18.24,4.69.47a27.53,27.53,0,0,1,4,1l.56.18-.08.28a63.68,63.68,0,0,0-9.24-1c-1.55,0-3.09.13-4.58.24h-.1Z"/><path class="cls-3" d="M80.62,177.76c-.2.27-.38.49-.53.67A1.7,1.7,0,0,1,79,179l-.25,0h0c-.68,0-1.35,0-2-.07C7,175.62,38.64,45.82,45.07,22a1.65,1.65,0,0,1,.75-1,1.71,1.71,0,0,1,2.36.51C114.1,124.67,86.72,169.81,80.62,177.76Z"/><path class="cls-4" d="M80.62,177.76c-.2.27-.38.49-.53.67A1.7,1.7,0,0,1,79,179l-.25,0h0c-.68,0-1.35,0-2-.07C7,175.62,38.64,45.82,45.07,22a1.65,1.65,0,0,1,.75-1,1.71,1.71,0,0,1,2.36.51C114.1,124.67,86.72,169.81,80.62,177.76Z"/><path class="cls-5" d="M130.36,80.4h-6.75A1.65,1.65,0,0,1,122,78.76V24.45a1.63,1.63,0,0,1,1.63-1.63h6.76A1.65,1.65,0,0,1,132,24.45V78.73a1.66,1.66,0,0,1-1.63,1.67Z"/><path class="cls-5" d="M154.08,57.11H99.88a1.66,1.66,0,0,1-1.64-1.64V48.73a1.63,1.63,0,0,1,1.62-1.64h54.22a1.63,1.63,0,0,1,1.64,1.62h0v6.75a1.66,1.66,0,0,1-1.64,1.64Z"/><path class="cls-6" d="M80.62,177.76c-.2.27-.38.49-.53.67A1.7,1.7,0,0,1,79,179l-.25,0h0c-.68,0-1.35,0-2-.07-.43-7.06-1.07-14.16-1.84-21.23h0a47,47,0,0,0-3.39-3.82,45.9,45.9,0,0,0-5.38-4.65,36.49,36.49,0,0,0-6.12-3.7,33,33,0,0,0-6.84-2.37,33.18,33.18,0,0,1,7.2,1.44,37.43,37.43,0,0,1,6.83,2.94,47.59,47.59,0,0,1,6.28,4.09l.81.63c1.22,1,2.39,2,3.54,3.1l.32,2.16C79.09,164.28,80,171,80.62,177.76Z"/><path class="cls-7" d="M84.64,122.65a22.21,22.21,0,0,0-3.81,2.84,24,24,0,0,0-3,3.4,27.49,27.49,0,0,0-2.32,3.73c-.4.78-.78,1.63-1.11,2.44.18.86.33,1.71.49,2.57.28,1.5.54,3,.8,4.49q.77,4.37,1.45,8.75c.24,1.51.47,3,.69,4.54-1.15-1.12-2.32-2.12-3.54-3.1l-.12-1q-.53-4.4-1.14-8.78c-.11-.81-.22-1.62-.34-2.43-.19-1.37-.4-2.74-.6-4.11-.15-1-.29-1.9-.44-2.85.4-.58.83-1.14,1.28-1.7v0c.2-.25.4-.49.62-.73a30.25,30.25,0,0,1,2.73-2.82,27.32,27.32,0,0,1,3.93-3A24.79,24.79,0,0,1,84.64,122.65Z"/><path class="cls-8" d="M73.54,130.66c-.22.24-.42.48-.62.73v0c-.45.56-.88,1.12-1.28,1.7-.35-2.18-.71-4.37-1.08-6.55-.17-1-.35-2-.53-3.07q-.22-1.26-.48-2.52h0c-.49-2.61-1-5.21-1.55-7.81a39.79,39.79,0,0,0-3.5-2.57,29.33,29.33,0,0,0-5.13-2.66,26.85,26.85,0,0,0-5.65-1.57,27.73,27.73,0,0,1,5.94.61,30.85,30.85,0,0,1,5.78,1.85c.62.27,1.23.55,1.83.85s1.19.6,1.77.93a.74.74,0,0,1,0,.14c.36,1.44.72,2.88,1.06,4.32.63,2.58,1.22,5.18,1.8,7.78l.06.27c.26,1.22.52,2.44.77,3.66S73.29,129.36,73.54,130.66Z"/><path class="cls-9" d="M69,110.59q-.87-.5-1.77-.93c-.07-.29-.13-.57-.19-.86s-.19-.87-.29-1.3c-.19-.87-.39-1.74-.59-2.61-.68-3-1.41-5.91-2.17-8.85l-.42-1.53h0c-.15-.54-.29-1.07-.45-1.6-.41-1.48-.84-3-1.28-4.42-.06-.21-.13-.42-.19-.63-1.88-6.26-4-12.44-6.47-18.51C58,75.57,60.44,82,62.62,88.45c.07.22.15.43.22.65.6,1.78,1.17,3.57,1.73,5.36.07.24.15.47.22.7s.13.41.19.61c.8,2.68,1.57,5.39,2.3,8.09l.63,2.35c.08.28.15.57.22.85C68.45,108.23,68.75,109.41,69,110.59Z"/></svg>