<svg id="Layer_1" data-name="Layer 1" xmlns="http://www.w3.org/2000/svg" xmlns:xlink="http://www.w3.org/1999/xlink" viewBox="0 0 200 200"><defs><style>.cls-1{fill:#fff;}.cls-2{fill:#16a085;}.cls-3{fill:#ecf0f1;}.cls-4{fill:#bdc3c7;}.cls-5{fill:#278441;}.cls-6{fill:#1fe544;}.cls-7{fill:#4d4d4d;}.cls-8{fill:#737373;}.cls-9{fill:#272727;}.cls-10{fill:#969696;}.cls-11{fill:#abecec;}.cls-12{fill:#d5f6f5;}.cls-13{fill:url(#linear-gradient);}.cls-14{fill:url(#linear-gradient-2);}.cls-15{fill:#8db0fc;}.cls-16{fill:url(#linear-gradient-3);}.cls-17{fill:#282828;}</style><linearGradient id="linear-gradient" x1="109.12" y1="109.7" x2="134.31" y2="109.7" gradientUnits="userSpaceOnUse"><stop offset="0" stop-color="#1245c6"/><stop offset="1" stop-color="#9909b7"/></linearGradient><linearGradient id="linear-gradient-2" x1="-373.36" y1="99.9" x2="-348.17" y2="99.9" gradientTransform="matrix(-1, 0, 0, 1, -239.05, 0)" xlink:href="#linear-gradient"/><linearGradient id="linear-gradient-3" x1="100.22" y1="50.47" x2="138.38" y2="50.47" xlink:href="#linear-gradient"/></defs><title>BFTI-external</title><rect class="cls-1" x="0.03" y="0.01" width="200" height="200" rx="30"/><path class="cls-2" d="M40.16,71.86v84.63a13,13,0,0,0,13,13H144.3a13,13,0,0,0,13-13h0V71.86Z"/><path class="cls-3" d="M40.16,65.34V150a13,13,0,0,0,13,13H144.3a13,13,0,0,0,13-13V65.34Z"/><path class="cls-4" d="M40.16,58.83v84.64a13,13,0,0,0,13,13H144.3a13,13,0,0,0,13-13V58.83Z"/><path class="cls-3" d="M40.16,52.32V137a13,13,0,0,0,13,13H144.3a13,13,0,0,0,13-13V52.32Z"/><path class="cls-5" d="M53.18,26.28a13,13,0,0,0-13,13h0V156.49a13,13,0,0,0,13,13h13V163H56.44a9.77,9.77,0,1,1-.57-19.53h88.46a13,13,0,0,0,13-13h0V39.33a13,13,0,0,0-13-13H53.18Z"/><path class="cls-6" d="M72.72,26.28V143.47h71.61a13,13,0,0,0,13-13h0V39.33a13,13,0,0,0-13-13H72.72Z"/><path class="cls-7" d="M164.07,139.91l-6.23,10.75,1.7,1.7a7.2,7.2,0,0,0,10.19,0h0Z"/><polygon class="cls-7" points="134.66 127.5 143.44 136.27 154.2 132.31 139.76 122.4 134.66 127.5"/><path class="cls-8" d="M162.94,145.59l6.8,6.79a7.23,7.23,0,0,0,0-10.19l-1.7-1.7Z"/><rect class="cls-8" x="143.09" y="118.03" width="7.21" height="12.41" transform="translate(-44.88 140.12) rotate(-45)"/><polygon points="158 136.11 148.53 131.17 143.44 136.27 157.84 150.69 162.94 145.59 158 136.11"/><rect class="cls-9" x="154.68" y="125.64" width="7.21" height="20.38" transform="translate(-49.68 151.71) rotate(-45)"/><path class="cls-8" d="M99,126.07a31.38,31.38,0,0,0,44.39,0h0L125.77,99.35,99,81.69A31.39,31.39,0,0,0,99,126.07Z"/><path class="cls-10" d="M99,81.69l44.39,44.38A31.39,31.39,0,0,0,99,81.69Z"/><path class="cls-11" d="M104.82,120.3a23.2,23.2,0,0,0,32.82,0l0,0h0l-11.89-21-21-11.89a23.24,23.24,0,0,0,0,32.84Z"/><path class="cls-12" d="M104.82,87.46l32.84,32.84a23.23,23.23,0,0,0-32.84-32.84Z"/><path class="cls-12" d="M108.22,116.92a18.43,18.43,0,0,0,26.05,0l-8.5-17.57-17.55-8.49a18.4,18.4,0,0,0,0,26h0Z"/><path class="cls-1" d="M108.22,90.86l26.05,26.06a18.42,18.42,0,0,0-26.05-26Z"/><path class="cls-13" d="M109.12,109.7h0a1.73,1.73,0,0,0,1.72,1.71h15.23v1.86a.68.68,0,0,0,.66.69h0a.63.63,0,0,0,.35-.09l7.21-4.17-7.21-4.17a.67.67,0,0,0-.93.24h0a.74.74,0,0,0-.09.36V108H110.84A1.73,1.73,0,0,0,109.12,109.7Z"/><path class="cls-14" d="M134.31,99.9h0a1.7,1.7,0,0,1-1.7,1.71H117.37v1.87a.68.68,0,0,1-.68.68h0a.67.67,0,0,1-.34-.09l-7.23-4.17,7.23-4.17a.68.68,0,0,1,.93.25h0a.73.73,0,0,1,.09.35v1.86h15.24A1.71,1.71,0,0,1,134.31,99.9Z"/><circle class="cls-15" cx="119.12" cy="50.47" r="21.62"/><path class="cls-16" d="M135.87,41A18.17,18.17,0,0,0,129,34.1a18.65,18.65,0,0,0-9.54-2.46,17,17,0,0,0-9.74,2.28,19.08,19.08,0,0,0-7,7,19.66,19.66,0,0,0,0,19.08,18,18,0,0,0,6.8,6.8,19.59,19.59,0,0,0,19.09,0A18,18,0,0,0,135.41,60a18.74,18.74,0,0,0,2.47-9.54A15.08,15.08,0,0,0,135.87,41Zm-14.31,19.5a.69.69,0,0,1-.22-.42.18.18,0,0,1-.18.2h0l-.41-.41c-.21-.21-.42-.21-.42-.42a.19.19,0,0,0-.19-.2h0a.7.7,0,0,1-.21-.42c0-.21-.21-.21-.21-.41v-.21c-.41.21-.82,0-1.45-.21-.21,0-.21-.21-.62-.62s-.42-.41-.63-.41h-1.24c-.21,0-.21-.21-.62-.21a.68.68,0,0,0-.42-.21.63.63,0,0,0-.41-.21l-.42-.2-.2-.21c.41,0,.2,0,.2-.21a1.51,1.51,0,0,0-.2-.62c0-.21-.22-.42-.22-.62a.45.45,0,0,0-.41-.42.65.65,0,0,0-.41-.21c.21,0,.21-.2,0-.41s-.21-.41-.42-.41a.75.75,0,0,1-.2-.42c-.21-.21-.21-.41-.42-.41-.2-.21-.2-.21-.2-.42v-.41h-.63a.68.68,0,0,0,.21.41c0,.21,0,.21.21.42a2.16,2.16,0,0,1,.41.62,1.34,1.34,0,0,1,.21,1.24h-.21V53.6l-.41-.42c-.21-.2-.42-.2-.42-.41h0a.77.77,0,0,0-.2-.62.68.68,0,0,1-.21-.42c-.21,0-.21-.21-.42-.62,0-.21-.2-.42-.2-.62l-.22-.21a.68.68,0,0,0-.41-.21.19.19,0,0,1-.2-.19v0l-.22-.2c-.61-.63-.61-1-.41-1-.2,0-.41-.21-.62-.41a1.59,1.59,0,0,1-.2-.83h0V45.92c.2-.62.2-.62.41-.62-.21,0-.21-.21-.21-.41v-.42h.19l.21.21c.21-.21.21-.21.21-.41l-.63-.63a12,12,0,0,0-1-.62v-.41c-.21,0-.21.2-.21,0V42.4c0-.21,0-.21-.21-.21A.19.19,0,0,1,106,42v0a16.69,16.69,0,0,1,5.8-5.59h.62c.21,0,.21,0,.42.2.21,0,.21.21.41.21l.21.21a.68.68,0,0,0-.21-.42.9.9,0,0,1,.63-.2h.82c0-.21-.21-.42-.41-.63l-.63.21c-.21-.21-.42,0-1,.21a.19.19,0,0,0-.2.19v0c-.21,0-.21.2-.42.2h-.21a8.28,8.28,0,0,1,2.28-1.24.21.21,0,0,1,.22.2h0l.2.2h0v.42c0,.21.21.21.41.21h1c.61,0,.82,0,.61-.21a.65.65,0,0,1,.21.41A.73.73,0,0,0,117,37v-.82h.2a.2.2,0,0,0,.21-.19v0h.21a.63.63,0,0,0-.21-.42H117a.2.2,0,0,1-.21-.18v0l-.21-.21a.21.21,0,0,1,.21-.21h0a.3.3,0,0,1,.41,0h0c.21,0,.42,0,.42.21.63.21.82.41.41.62a.78.78,0,0,1,.63.21c.2.21.42.21.2.41.22-.2.22-.41.42-.41a.74.74,0,0,1,.21.41.72.72,0,0,0,.2.42c.22.21.22.21.42.21s.21-.21.41-.42l.21-.21c-.21,0-.21-.2,0-.2a.79.79,0,0,1,.62-.21l.21.21c.21.2.21.41,0,.41.21.21.21.21.21.42s-.21.2-.42.2a.64.64,0,0,1-.41-.2c-.21,0-.21-.21-.42-.21a.65.65,0,0,0-.41.21.69.69,0,0,0-.2.41.62.62,0,0,0-.22.42,1.17,1.17,0,0,1-1.24.2v.21a.72.72,0,0,0-.2.42l-.22.2c-.2.21-.2.42-.41.62v.83c.21,0,.41,0,.41.2V41h1.46a2.15,2.15,0,0,1,1,.62c0-.21.42-.21.62,0,.21,0,.21.41.42.82,0,.21.21.41.41.62s.21.21.42.21h.41V43h0c-.2,0-.2-.2-.2-.41v-.41A.72.72,0,0,1,123,42c.2-.21.41-.21.41-.41a.78.78,0,0,0-.21-.63c-.2-.2-.42-.2-.42-.42a.2.2,0,0,1,.21-.2h0c.2-.21.2-.21.2-.41v-.63a.22.22,0,0,1,.2-.21h.83c.42,0,.62.21.82.21a.68.68,0,0,1,.42.21c.2,0,.2.2.41.2a.21.21,0,0,1,.2.21h-.16c.2,0,.2.2.2.41s0,.2-.2.2h.42c.2,0,.2.22,0,.22h1.22l.21-.22.21-.2.2-.21h.2v.63l.21.2a.2.2,0,0,1,.21.19v.44c-.42-.22-.42-.22-.21,0a.75.75,0,0,0,.42.2h.41a.21.21,0,0,1,.21.19v0l.2-.21a.86.86,0,0,0,.21.63c0,.2.21.2.42.2v.62a.68.68,0,0,1-.42.21c-.21,0-.41,0-.41.2a.7.7,0,0,1-.43.19c-.2.21-.2.21-.2.41-.21-.41-.63-.41-1.24-.2-.82-.42-1.25-.42-1.46-.21s-.41.21-.62.41v.21a.2.2,0,0,1-.2.21h0a.21.21,0,0,1-.21.21h0a.68.68,0,0,0,.42-.21l.21-.21c.41-.21.82-.41,1-.21.41,0,.41.21.2.42h-.39c.21,0,.21,0,.42.21,0,0,.2.2,0,.2.2.21.41.42.2.42-.2.21-.41.21-.82.21h0l-.42.2a.68.68,0,0,0-.41.21c-.2,0-.2.21-.42.21v.41h-.19a.81.81,0,0,1-.41.21.62.62,0,0,0-.41.18v.41a.41.41,0,0,1-.56.07l-.07-.07-.2.2c0,.22,0,.22-.21.22a.28.28,0,0,1,0,.4h.21a.2.2,0,0,1,.2.2h.21a.21.21,0,0,1-.2.21h0a.83.83,0,0,1-.41.82l-.2.2c-.22,0-.22.21-.42.21h-.21l-.42.42v.41c0,.21.21.21.42.21v1.48c0,.21,0,.21-.21.21H122c-.2,0-.2-.42-.41-1,0-.21-.21-.41-.21-.62l-.21.21H121l-.21-.21a.19.19,0,0,1-.21-.19v0a.65.65,0,0,1-.41-.21c-.21,0-.42,0-.42-.2-.41.2-.61.2-.61-.21v.62c-.22.21-.22.21-.63,0,0,0-.42-.21-.62,0h-.63v.21h-.41l-.21.21a.19.19,0,0,1-.19.2h0c0,.21.21.42.21.63v1.24a1.25,1.25,0,0,0,.21.82c.21.42.42.62.62.62s.42.21.62.21h.63l.2-.21a.22.22,0,0,1,.21-.21h0v-.21c.2-.42.41-.42.61-.42h.42l.21.21v.21c0,.21-.21.21-.21.41a.2.2,0,0,1-.2.21h0v1h.42v-.42c0,.21.2.21.41.21s.41,0,.41-.21a.73.73,0,0,1,.21.42.61.61,0,0,1,.21.42v.61h-.42v.82c.21.63.63.63,1.25.42,0,.41-.21.82-.42.82C122,60.86,121.8,60.65,121.56,60.45ZM122,66v-.42c0-.2,0-.2.2-.62a.64.64,0,0,0,.22-.41c-.22,0-.42-.21-.22-.62a1.94,1.94,0,0,1,.63-1c.42-.21.42-.62.21-1.25a2.17,2.17,0,0,0-.21-1v-.82l.21.2c.21,0,.21,0,.21.21a.2.2,0,0,1,.18-.21h0c0-.2,0-.2.21-.2a.19.19,0,0,1,.19-.21h0a.21.21,0,0,0,.21-.19v0a.19.19,0,0,0,.2-.19h0a.21.21,0,0,0,.21-.19v0a.2.2,0,0,0,.21-.2h0c.2,0,.2,0,.2.21v.41c-.2.21-.2.42,0,.42v-.42c0-.2,0-.2.21-.41l.2-.21h.22a.2.2,0,0,1,.2.2h0l.21.21a1.07,1.07,0,0,1,.82.62h.82a.2.2,0,0,1,.21.2h0l.21.21.2.21a.2.2,0,0,1,.21.19v0a.2.2,0,0,1,.21.2h0l.21.21v.42a1.51,1.51,0,0,1,.62.2h.21c.2,0,.2,0,.2.21C128.37,64,125.5,65.42,122,66Z"/><polygon class="cls-17" points="72.72 180.13 62.95 171.14 53.18 180.13 53.18 149.98 72.72 149.98 72.72 180.13"/></svg>