<svg id="Layer_1" data-name="Layer 1" xmlns="http://www.w3.org/2000/svg" viewBox="0 0 200 200"><defs><style>.cls-1{fill:#fff;}.cls-2{fill:#a3822e;}.cls-3{fill:#333;}.cls-4{fill:#ede495;}.cls-5{fill:#221f1f;}.cls-6{fill:none;stroke:#fff;stroke-miterlimit:10;stroke-width:1.04px;}</style></defs><title>dealer-panel</title><rect class="cls-1" x="0.5" y="0.78" width="200" height="200" rx="30"/><path class="cls-2" d="M137.12,157.75l-2.69,3.16a3.39,3.39,0,0,1-4.61.52h0L121,153.37l-.29.32,2.61,2.38h0l.45.38h0l4.45,4.09a3.35,3.35,0,0,1-.35,3.83l-2.7,3.17a3.36,3.36,0,0,1-4.75.39l0,0-4.07-3.45h0l-4.23-3.82-.29.3,6,5.47a3.38,3.38,0,0,1-.56,3.45l-2.71,3.19a3.39,3.39,0,0,1-4.77.39h0l-2.56-2.25h0l-4.51-4.12-.28.33,3.83,3.45h0a3.36,3.36,0,0,1-.35,3.9l-2.7,3.16a3.36,3.36,0,0,1-4.73.43l0-.05-1.82-1.69-10.64-9L52.26,138.5,39.75,123,36,119.24,55.54,99.67l4,4c6.63,4.71,16.5,3.92,16.5,3.92l10.13-3.71a8.63,8.63,0,0,1,7.3.68l6.26,3.69,11.94,8.4a42.89,42.89,0,0,1,17.91,30.32l7.12,6.06a3.37,3.37,0,0,1,.44,4.75l0,0Z"/><rect class="cls-3" x="33.54" y="106.23" width="29.4" height="10.92" rx="1.26" transform="translate(-64.85 66.82) rotate(-45)"/><path class="cls-4" d="M159.86,120.2c1.15,7.51-12.24,18.61-12.24,18.61-10.36,12.77-17.81,10.05-17.81,10.05-3.34.29-25.32-23.73-25.32-23.73-2.87-2-14.79,4-14.79,4-10.37,0-8.43-8.76-8.43-8.76,2.61-9.62,17.87-15.65,17.87-15.65,10.36-2.87,27.73,5.57,27.73,5.58,11.34-11.47,15.64-10.69,15.64-10.69h2.66l18.06,17.43Z"/><path class="cls-4" d="M65.85,133.55l.56.57a5.06,5.06,0,0,1,0,7.15h0L54.3,153.41a3.47,3.47,0,0,1-4.78,0l-3-2.95a3.38,3.38,0,0,1,0-4.78h0l12.12-12.1a5.09,5.09,0,0,1,7.17,0Z"/><path class="cls-4" d="M76.32,139l.56.57a5.06,5.06,0,0,1,0,7.15h0L59.79,163.84a3.39,3.39,0,0,1-4.78,0h0l-3-3a3.36,3.36,0,0,1,0-4.76l0,0h0L69.14,139a5.08,5.08,0,0,1,7.18,0Z"/><path class="cls-4" d="M81.57,150l.56.56a5.06,5.06,0,0,1,0,7.15h0l-11.4,11.4a3.37,3.37,0,0,1-4.77,0h0L63,166.19a3.34,3.34,0,0,1,0-4.72L74.41,150a5.06,5.06,0,0,1,7.15,0h0Z"/><path class="cls-4" d="M87.55,160.29l.56.57a5,5,0,0,1,0,7.13v0h0L81,175.1a3.39,3.39,0,0,1-4.78,0h0l-2.93-2.92a3.4,3.4,0,0,1-.11-4.78v-.06l7.19-7.08a5.07,5.07,0,0,1,7.14,0h0Z"/><rect class="cls-3" x="145.9" y="93.19" width="10.92" height="30.03" rx="1.26" transform="translate(-31.27 143.77) rotate(-46.58)"/><rect class="cls-5" x="59.96" y="37.81" width="80.65" height="56.63" rx="4.21"/><rect class="cls-6" x="62.05" y="40.09" width="76.48" height="52.88" rx="3.96"/><path class="cls-5" d="M116.84,23.37H83.75a2.12,2.12,0,0,0-2.11,2.11h0v9.05a2.1,2.1,0,0,0,1.88,2.1V27.89a2,2,0,0,1,2-2h29.48a2,2,0,0,1,2,2v8.74A2.11,2.11,0,0,0,119,34.56V25.48a2.11,2.11,0,0,0-2.11-2.11Z"/></svg>