<svg id="Layer_1" data-name="Layer 1" xmlns="http://www.w3.org/2000/svg" viewBox="0 0 200 200"><defs><style>.cls-1{fill:#fff;}.cls-2{fill:#77a0cb;}.cls-3{fill:#2e8947;}.cls-4{fill:#289da3;}.cls-5{fill:#317abc;}.cls-6{fill:#214162;}</style></defs><title>4LRCPN-panel</title><rect class="cls-1" width="200" height="200" rx="30"/><path class="cls-2" d="M146.05,165.43H53.88a2.73,2.73,0,0,1-2.7-2.71V30.13a2.74,2.74,0,0,1,2.7-2.67H146a2.74,2.74,0,0,1,2.7,2.71V162.8a2.64,2.64,0,0,1-2.58,2.7h0ZM54.71,164h90.51a2.23,2.23,0,0,0,2.24-2.22h0v-131a2.23,2.23,0,0,0-2.23-2.23H54.71a2.23,2.23,0,0,0-2.23,2.23h0v131A2.37,2.37,0,0,0,54.71,164Z"/><path d="M72.46,33.54h1.41v9.87h4.74v1.17H72.46Z"/><path d="M81.63,33.54v11H80.22v-11Z"/><path d="M91.86,44.23a7.56,7.56,0,0,1-2.94.47c-3.18,0-5.41-2-5.41-5.67a5.48,5.48,0,0,1,5.19-5.77h.57a7,7,0,0,1,2.59.47l-.35,1.18a5.91,5.91,0,0,0-2.24-.35c-2.58,0-4.35,1.65-4.35,4.58,0,2.71,1.53,4.47,4.24,4.47a6.75,6.75,0,0,0,2.35-.48Z"/><path d="M99.38,39.41H95v4h4.81v1.17H93.63v-11h6v1.17H95v3.53h4.34Z"/><path d="M101.74,44.58v-11h1.52l3.53,5.67c.72,1.17,1.38,2.38,2,3.61h0c-.12-1.52-.12-2.84-.12-4.58V33.65H110V44.7h-1.41L105,39a30.86,30.86,0,0,1-2.11-3.65h0c.11,1.41.11,2.7.11,4.58v4.73h-1.26Z"/><path d="M120.19,44.23a7.56,7.56,0,0,1-2.94.47c-3.17,0-5.41-2-5.41-5.67a5.5,5.5,0,0,1,5.2-5.77h.56a7,7,0,0,1,2.59.47l-.36,1.18a5.9,5.9,0,0,0-2.23-.47c-2.59,0-4.35,1.64-4.35,4.59,0,2.69,1.53,4.46,4.23,4.46a7,7,0,0,0,2.35-.47Z"/><path d="M127.7,39.41h-4.36v4h4.82v1.17h-6.23v-11h6v1.17h-4.58v3.53h4.36Z"/><rect x="52.6" y="49.99" width="95.57" height="0.71"/><path class="cls-3" d="M114.19,78.79h-63v-15h63A6.8,6.8,0,0,1,121,70.56h0v1.38a6.81,6.81,0,0,1-6.77,6.85h0Z"/><path class="cls-4" d="M128.07,112.06H51.19V97h77a6.82,6.82,0,0,1,6.82,6.82h0v1.41a6.86,6.86,0,0,1-6.89,6.82Z"/><path class="cls-5" d="M103,144.39H51.19v-15H103a6.82,6.82,0,0,1,6.83,6.81h0v1.41a6.82,6.82,0,0,1-6.82,6.82h0Z"/><path d="M152,138.94l-1.47,1.47a4.36,4.36,0,0,0-1.27,3.09v2.1a4.4,4.4,0,0,1-4.39,4.41h-2.12a4.39,4.39,0,0,0-3.1,1.28l-1.47,1.47a4.35,4.35,0,0,1-6.15.05v-.05l-1.42-1.47a4.39,4.39,0,0,0-3.1-1.28h-2.1a4.4,4.4,0,0,1-4.41-4.37v0h0v-2.1a4.37,4.37,0,0,0-1.28-3.09L118.25,139a4.37,4.37,0,0,1,0-6.16l0-.05,1.47-1.47a4.37,4.37,0,0,0,1.28-3.09v-2.1a4.4,4.4,0,0,1,4.37-4.41h2.14a4.39,4.39,0,0,0,3.1-1.28l1.46-1.47a4.36,4.36,0,0,1,6.16,0h.05l1.47,1.47a4.37,4.37,0,0,0,3.09,1.28h2.1a4.4,4.4,0,0,1,4.41,4.37v0h0v2.1a4.37,4.37,0,0,0,1.28,3.09l1.47,1.47a4.37,4.37,0,0,1,.06,6.16Z"/><path class="cls-6" d="M150.34,140,149,141.4a4,4,0,0,0-1.18,2.84v1.89a4,4,0,0,1-4,4h-1.94a4,4,0,0,0-2.84,1.19l-1.38,1.37a4,4,0,0,1-5.66,0h0l-1.38-1.37a4,4,0,0,0-2.84-1.2h-1.89a4,4,0,0,1-4-4v-1.89a4.1,4.1,0,0,0-1.18-2.84L119.27,140a4,4,0,0,1,0-5.66l0,0h0l1.38-1.37a4.1,4.1,0,0,0,1.18-2.84v-1.89a4,4,0,0,1,4-4h1.89a4,4,0,0,0,2.84-1.19l1.38-1.36a4,4,0,0,1,5.66,0h0l1.43,1.39a4,4,0,0,0,2.84,1.19h1.9a4,4,0,0,1,4,4v1.9A4,4,0,0,0,149,133l1.37,1.37A4.08,4.08,0,0,1,150.34,140Z"/><path class="cls-1" d="M148.24,141l-1.18,1.18a3.53,3.53,0,0,0-1,2.46v1.64a3.46,3.46,0,0,1-3.45,3.47H141a3.49,3.49,0,0,0-2.46,1l-1.2,1.18a3.34,3.34,0,0,1-4.72.1h0a.2.2,0,0,1-.09-.09l-1.2-1.18a3.49,3.49,0,0,0-2.46-1h-1.66a3.46,3.46,0,0,1-3.47-3.45h0v-1.64a3.51,3.51,0,0,0-.94-2.46L121.6,141a3.37,3.37,0,0,1-.09-4.73l.09-.09,1.2-1.19a3.51,3.51,0,0,0,.94-2.46V130.9a3.46,3.46,0,0,1,3.46-3.46h1.65a3.56,3.56,0,0,0,2.47-1l1.19-1.2a3.36,3.36,0,0,1,4.73-.08l.08.08,1.2,1.2a3.53,3.53,0,0,0,2.46,1h1.58A3.48,3.48,0,0,1,146,130.9h0v1.61a3.53,3.53,0,0,0,1,2.46l1.19,1.2a3.41,3.41,0,0,1,0,4.73.08.08,0,0,0,0,.11h0Z"/><path class="cls-6" d="M132.68,155.19l-5.57,20.21a1.06,1.06,0,0,1-.89.81,1.11,1.11,0,0,1-1.1-.62l-2.93-5.37a.34.34,0,0,0-.39-.2l-4.66,1.91a1,1,0,0,1-1.09-.2,1.33,1.33,0,0,1-.39-1.35l5.54-20.07a1.09,1.09,0,0,1,.7-.77,1,1,0,0,1,.95.18c3.06,2.36,6,3.66,8.81,3.86a1.14,1.14,0,0,1,.83.49A1.31,1.31,0,0,1,132.68,155.19Z"/><path class="cls-6" d="M154.19,171.73a1,1,0,0,1-1.09.2L148.43,170c-.14-.05-.29,0-.39.2l-2.92,5.37a1.12,1.12,0,0,1-1.1.62,1.05,1.05,0,0,1-.89-.81l-5.58-20.21a1.35,1.35,0,0,1,.2-1.12,1.12,1.12,0,0,1,.82-.49c2.79-.2,5.75-1.5,8.81-3.86a1,1,0,0,1,1-.18,1.13,1.13,0,0,1,.7.77l5.54,20.07A1.35,1.35,0,0,1,154.19,171.73Z"/><polygon points="130.63 144.96 126.62 139.39 129.63 137.2 131.37 139.67 141.13 132.1 143.41 135.11 130.63 144.96"/></svg>