<svg id="Layer_1" data-name="Layer 1" xmlns="http://www.w3.org/2000/svg" xmlns:xlink="http://www.w3.org/1999/xlink" viewBox="0 0 200 200"><defs><style>.cls-1{fill:#fff;}.cls-2{fill:#29292d;}.cls-3{fill:#231f20;}.cls-4{fill:#15aaff;}.cls-5{fill:#24b700;}.cls-6{fill:url(#linear-gradient);}</style><linearGradient id="linear-gradient" x1="83.41" y1="101.16" x2="120.42" y2="101.16" gradientTransform="matrix(1, 0, 0, -1, 0, 201.28)" gradientUnits="userSpaceOnUse"><stop offset="0" stop-color="#24b700"/><stop offset="1" stop-color="#15aaff"/></linearGradient></defs><title>association</title><rect class="cls-1" width="200" height="200" rx="30"/><path class="cls-2" d="M160.85,47.48h13.06a2,2,0,0,1,2,2V76.64a2,2,0,0,1-2,2H160.85Z"/><path class="cls-2" d="M121.68,160.68h31.16v12.06a3,3,0,0,1-3,3H124.68a3,3,0,0,1-3-3Z"/><path class="cls-3" d="M85.14,152.39H40.28V152l.06-29.53.2-.17,12-5.44L65,104.6a3.29,3.29,0,0,1,4.65-.26h0l.1.09a3.17,3.17,0,0,1,.42,4.08l-6.89,9.19-.55,4.47H93.86a3.64,3.64,0,0,1,3.65,3.58A3.52,3.52,0,0,1,94,129.24H74.88V130h22a3.51,3.51,0,0,1,3.58,3.44h0v.24A3.51,3.51,0,0,1,97,137.22H74.88v.65H92.22a3.51,3.51,0,0,1,.39,7H74.88v.65H85.22a3.58,3.58,0,0,1,3.58,3.58h0a3.44,3.44,0,0,1-3.56,3.32h-.1ZM41,151.72H85.14a2.8,2.8,0,0,0,3-2.53v-.11a2.93,2.93,0,0,0-2.86-3H74.17v-2h18a2.82,2.82,0,0,0,.93-5.56l-.21,0H74.17v-2H96.88a2.86,2.86,0,0,0,2.86-2.82v-.22a2.84,2.84,0,0,0-2.86-2.8H74.17v-2H94a2.82,2.82,0,0,0,2.9-2.74h0v-.07a2.92,2.92,0,0,0-3-2.84H62.14l-.2-.29v-.18l.62-5.12,7-9.28a2.53,2.53,0,0,0-.33-3.27,2.63,2.63,0,0,0-1.94-.73,2.57,2.57,0,0,0-1.86.9L52.94,117.45l-11.88,5.44Z"/><path class="cls-2" d="M27.09,122H39.15V153.2H27.09a3,3,0,0,1-3-3V125A3,3,0,0,1,27.09,122Z"/><path class="cls-3" d="M152,160l-29.62-.07-.1-.19-5.43-12-12.34-12.43a3.31,3.31,0,0,1-.26-4.66l.1-.1a3.16,3.16,0,0,1,4.07-.41l9.19,6.88,4.64.57V106.43a3.58,3.58,0,0,1,3.51-3.65h.07a3.52,3.52,0,0,1,3.49,3.56v19.14h.7v-22a3.53,3.53,0,0,1,3.49-3.53h.22a3.52,3.52,0,0,1,3.48,3.53v22h.65v-17.4a3.52,3.52,0,0,1,7-.7v.3a2.67,2.67,0,0,1,0,.4v17.34h.65V115.07a3.58,3.58,0,0,1,3.58-3.58h0a3.45,3.45,0,0,1,3.32,3.57h0v45Zm-29.19-.76,28.85.08V115.15a2.79,2.79,0,0,0-2.55-3H149a2.94,2.94,0,0,0-2.9,2.94v11h-2v-18a2.82,2.82,0,0,0-5.59-.73v.1a1.31,1.31,0,0,0,0,.28,2,2,0,0,0,0,.35v18h-2V103.4a2.82,2.82,0,0,0-2.8-2.84h-.21a2.82,2.82,0,0,0-2.82,2.82v0h0v22.73h-2.06V106.31a2.82,2.82,0,0,0-2.78-2.85h0a3,3,0,0,0-3,2.92h0v31.77l-.29.21h-.16l-5.12-.62-9.31-7a2.53,2.53,0,0,0-3.27.33,2.63,2.63,0,0,0,.07,3.69l.12.11,12.45,12.52Z"/><path class="cls-3" d="M132.77,96.94a3.3,3.3,0,0,1-2.29-.89,3.19,3.19,0,0,1-.41-4.08L137,82.79l.57-4.64H106.38a3.65,3.65,0,0,1-3.66-3.58,3.58,3.58,0,0,1,3.58-3.49h19.09v-.7H103.31a3.53,3.53,0,0,1-3.58-3.48h0v-.23a3.52,3.52,0,0,1,3.55-3.48h22.08v-.65H107.94a3.51,3.51,0,1,1-.38-7h17.78v-.66H115a3.58,3.58,0,0,1-3.58-3.58h0A3.46,3.46,0,0,1,115,48.07h45v.34l-.08,29.71h-.26l-12,5.37-12.4,12.32a3.26,3.26,0,0,1-2.32,1.08ZM106.25,71.71a2.86,2.86,0,0,0-2.85,2.82,3,3,0,0,0,3,2.92h31.83v.3L137.59,83l-7,9.32a2.53,2.53,0,0,0,.32,3.27,2.67,2.67,0,0,0,1.94.72,2.54,2.54,0,0,0,1.85-.89L147.25,83l11.93-5.43.07-28.85H115.07a2.79,2.79,0,0,0-3,2.54v.05h0a2.94,2.94,0,0,0,2.9,2.87h11v2H108a2.82,2.82,0,0,0-.35,5.62H126v2H103.3a2.82,2.82,0,0,0-2.86,2.78h0v.22a2.81,2.81,0,0,0,2.81,2.81H126v2.06Z"/><path class="cls-3" d="M66.78,100.52h-.23A3.53,3.53,0,0,1,63.06,97h0V75h-.64V92.35a3.51,3.51,0,1,1-7,.39,2.54,2.54,0,0,1,0-.39V75H54.8V85.29a3.58,3.58,0,0,1-3.58,3.58h0A3.44,3.44,0,0,1,48,85.29V40.34h.33l29.53.09.17.19,5.44,12L95.73,65.05A3.35,3.35,0,0,1,96,69.78l0,0a3.18,3.18,0,0,1-4.08.41l-9.21-6.88-4.55-.56V93.94a3.58,3.58,0,0,1-3.51,3.65H74.5A3.53,3.53,0,0,1,71,94V75h-.74V97A3.52,3.52,0,0,1,66.78,100.52Zm-5-26.24h2V97a2.85,2.85,0,0,0,2.81,2.86h.23A2.85,2.85,0,0,0,69.62,97V74.28h2V94a2.84,2.84,0,0,0,2.79,2.84,2.89,2.89,0,0,0,3-2.84h0V62.21l.34-.2h.11l5.12.63,9.29,7.06a2.53,2.53,0,0,0,3.26-.34,2.56,2.56,0,0,0,.73-1.93,2.72,2.72,0,0,0-.89-1.86L82.83,53,77.4,41.11H48.54V85.22a2.81,2.81,0,0,0,2.56,3h.09a2.93,2.93,0,0,0,3-2.86v0h0V74.28h2v18a2.82,2.82,0,0,0,5.62.35,2,2,0,0,0,0-.35Z"/><path class="cls-2" d="M50.28,24.26H75.44a3,3,0,0,1,3,3V39.32H47.28V27.26A3,3,0,0,1,50.28,24.26Z"/><path class="cls-4" d="M159.52,77.75l.08-29.41H115.07a3.13,3.13,0,0,0-3.35,2.87v.11h0A3.26,3.26,0,0,0,115,54.58h10.69v1.33H108A3.17,3.17,0,0,0,104.8,59h0a3.19,3.19,0,0,0,3.2,3.15h17.68v1.32H103.31a3.17,3.17,0,0,0-3.19,3.12v.21a3.15,3.15,0,0,0,3.1,3.2h22.46v1.39H106.25a3.17,3.17,0,0,0-3.2,3.14h0a3.26,3.26,0,0,0,3.24,3.26h31.55l-.62,5.1h0l-6.92,9.24a2.84,2.84,0,0,0,.36,3.65h0a2.93,2.93,0,0,0,4.14,0h0l.13-.15,12.45-12.35h0l12.07-5.43Z"/><path class="cls-4" d="M122.56,159.6l29.42.07h0V115.15a3.12,3.12,0,0,0-2.87-3.35H149a3.26,3.26,0,0,0-3.26,3.26h0v10.67h-1.33V108.08a3.18,3.18,0,0,0-3.13-3.21h0a3.18,3.18,0,0,0-3.15,3.21h0v17.67h-1.32V103.38a3.18,3.18,0,0,0-3.14-3.2h-.22a3.19,3.19,0,0,0-3.15,3.2h0v22.37h-1.38V106.31a3.18,3.18,0,0,0-3.16-3.19h0a3.26,3.26,0,0,0-3.27,3.25h0v31.56h0l-5.1-.63h0l-9.22-7a2.86,2.86,0,0,0-3.65.36h0a2.94,2.94,0,0,0,.06,4.15h0l.14.13,12.39,12.47h0l5.37,12.06Z"/><path class="cls-5" d="M77.65,40.77l-29.36-.08h0V85.22a3.13,3.13,0,0,0,2.86,3.35h.12a3.27,3.27,0,0,0,3.27-3.25h0V74.58h1.32V92.3A3.15,3.15,0,0,0,59,95.49h0a3.15,3.15,0,0,0,3.14-3.16h0V74.62h1.29V97a3.19,3.19,0,0,0,3.12,3.13h.23A3.17,3.17,0,0,0,69.92,97h0V74.56H71.3V94a3.18,3.18,0,0,0,3.16,3.2h0A3.25,3.25,0,0,0,77.75,94h0V62.46h0l5.09.61h0L92.07,70a2.81,2.81,0,0,0,3.64-.38h0a2.92,2.92,0,0,0,0-4.14h0l-.21-.18L83.12,52.84h0Z"/><path class="cls-5" d="M40.69,122.64,40.62,152H85.19a3.12,3.12,0,0,0,3.36-2.86h0V149h0a3.25,3.25,0,0,0-3.21-3.29H74.59v-1.33H92.22a3.15,3.15,0,0,0,3.19-3.13v0h0a3.16,3.16,0,0,0-3.17-3.14H74.55V136.9H96.92a3.19,3.19,0,0,0,3.2-3.1v-.28A3.15,3.15,0,0,0,97,130.38H74.55V129H94a3.18,3.18,0,0,0,3.2-3.16h0a3.26,3.26,0,0,0-3.26-3.26H62.38l.62-5.09h0l6.93-9.25a2.82,2.82,0,0,0-.36-3.64h0a2.92,2.92,0,0,0-4.14.05h0l-.13.14L52.77,117.15h0Z"/><polygon class="cls-6" points="111.16 84.09 92.66 84.09 83.41 100.12 92.66 116.15 111.16 116.15 120.42 100.12 111.16 84.09"/></svg>