<svg id="Layer_1" data-name="Layer 1" xmlns="http://www.w3.org/2000/svg" xmlns:xlink="http://www.w3.org/1999/xlink" viewBox="0 0 200 200"><defs><style>.cls-1{fill:#fff;}.cls-2{fill:#acb270;}.cls-3{fill:#ba3e1c;}.cls-4{fill:#9e9ce2;}.cls-5{fill:url(#linear-gradient);}.cls-6{fill:#ca75cc;}.cls-7{fill:#48a091;}.cls-8{fill:#7c3c4e;}.cls-9{fill:#514d4e;}</style><linearGradient id="linear-gradient" x1="24.09" y1="111.48" x2="175.91" y2="111.48" gradientTransform="translate(0 1.28)" gradientUnits="userSpaceOnUse"><stop offset="0" stop-color="#13bf00"/><stop offset="1" stop-color="#37d1ff"/></linearGradient></defs><title>council-panel</title><rect class="cls-1" width="200" height="200" rx="30"/><path class="cls-2" d="M83.68,46.88h34.38V83.33a5,5,0,0,1-5,5H88.66a5,5,0,0,1-5-5Z"/><path class="cls-3" d="M127.7,46.88h34.38v12a29.34,29.34,0,0,1-29.3,29.34h0a5,5,0,0,1-5.08-4.88v0h0Z"/><path class="cls-4" d="M40,46.88H74.27V83.33a5,5,0,0,1-5,5h0A29.35,29.35,0,0,1,40,58.93h0Z"/><ellipse class="cls-5" cx="100" cy="112.76" rx="75.91" ry="35.06"/><path class="cls-6" d="M84,134.55h34.37V171a5,5,0,0,1-5,5H88.94a5,5,0,0,1-5-5Z"/><circle class="cls-1" cx="101.14" cy="122.57" r="10.92"/><path class="cls-7" d="M128,134.55h34.37v12.07A29.36,29.36,0,0,1,133,176h0a5,5,0,0,1-5-5V134.53Z"/><circle class="cls-1" cx="145.16" cy="122.57" r="10.92"/><path class="cls-8" d="M40,134.55H74.27V171a5,5,0,0,1-4.93,5h0a29.35,29.35,0,0,1-29.35-29.35h0V134.54h0Z"/><circle class="cls-1" cx="57.11" cy="122.57" r="10.92"/><circle class="cls-9" cx="101.14" cy="34.88" r="10.92"/><circle class="cls-9" cx="144.87" cy="34.88" r="10.92"/><circle class="cls-9" cx="57.11" cy="34.88" r="10.92"/></svg>