<svg id="Layer_1" data-name="Layer 1" xmlns="http://www.w3.org/2000/svg" viewBox="0 0 30 30"><defs><style>.cls-1{fill:#fe6e5e;}.cls-2{fill:#fda513;}.cls-3{fill:#34d5c0;}.cls-4{fill:#f3584d;}.cls-5{fill:#f6b557;}.cls-6{fill:#1ac3ad;}</style></defs><path class="cls-1" d="M.47,9.72V9.55a.53.53,0,0,1,.37-.38c2.1-.9,4.21-1.78,6.31-2.66s4.08-1.73,6.13-2.58a1.37,1.37,0,0,1,.56-.18c1,.36,2,.82,3,1.25l8.81,3.71,1.1.46c.21.09.42.2.41.48s-.18.37-.39.46l-3.42,1.44c-3,1.28-6.05,2.55-9.07,3.84l-.48.16a.7.7,0,0,1-.35-.09c-2-.83-4-1.69-6-2.54L7,12.75c-.63-.3-1.28-.55-1.92-.82L.9,10.16C.69,10.07.52,10,.47,9.72Z"/><path class="cls-2" d="M7,12.65c.78.26,1.52.62,2.28.93l4.54,1.91a.76.76,0,0,1,.44.07,1.62,1.62,0,0,0,1.41,0c1.89-.81,3.79-1.61,5.68-2.4a.83.83,0,0,1,.38-.1c.93.31,1.82.74,2.72,1.11l2.14.9a1.9,1.9,0,0,1,.4.21A.4.4,0,0,1,27,16a1.87,1.87,0,0,1-.4.2l-11.16,4.7a14.82,14.82,0,0,1-1.6.64.6.6,0,0,1-.32-.07l-6.66-2.8-.14-.08c-1.94-.79-3.87-1.62-5.8-2.43a.65.65,0,0,1-.45-.39V15.5c0-.21.19-.3.37-.38l5.23-2.2.52-.22A.62.62,0,0,1,7,12.65Z"/><path class="cls-3" d="M6.79,18.47l6.84,2.88.21.09a.9.9,0,0,1,.49.09,1.45,1.45,0,0,0,1.3,0c2-.85,4-1.7,6-2.53a.71.71,0,0,1,.35-.1c.84.25,1.62.65,2.44,1s1.51.63,2.26.95l.24.11a.45.45,0,0,1,.28.42.43.43,0,0,1-.3.4c-.44.2-.88.39-1.33.57-3.23,1.35-6.46,2.73-9.69,4.09l-1.52.63a.79.79,0,0,1-.54.12L7.46,24.5.88,21.72a.8.8,0,0,1-.41-.27v-.23a.65.65,0,0,1,.43-.38c1.76-.75,3.53-1.48,5.29-2.24A1.38,1.38,0,0,1,6.79,18.47Z"/><path class="cls-4" d="M21.77,13.12l-3.44,1.44c-.91.38-1.81.75-2.71,1.15a2,2,0,0,1-1.77-.22,16.55,16.55,0,0,1,1.78-.78L21,12.45l4.85-2c.34-.15.69-.31,1-.44a.34.34,0,0,0,.26-.33c0-.18-.11-.26-.26-.32L24.29,8.25,19,6,14.22,4l-.39-.17a2.08,2.08,0,0,1,2.05-.14c4.4,1.89,8.82,3.73,13.24,5.59a1.59,1.59,0,0,1,.35.22v.28a.5.5,0,0,1-.33.35c-2,.82-4,1.69-6,2.49l-.2.11c-.25.1-.5.19-.75.31A.82.82,0,0,1,21.77,13.12Z"/><path class="cls-5" d="M21.77,13.12A6.05,6.05,0,0,1,23,12.65a.62.62,0,0,1,.44,0l5.67,2.39a.63.63,0,0,1,.41.35v.29c0,.24-.26.32-.46.41l-3,1.27-2.29,1a1.74,1.74,0,0,0-.49.2l-.64.28A1.12,1.12,0,0,1,22,19c-2,.86-4.08,1.69-6.1,2.59a2.1,2.1,0,0,1-2.06-.12c.53-.28,1.09-.48,1.63-.71l5.78-2.45,5.13-2.16.49-.2a.37.37,0,0,0,.25-.29.33.33,0,0,0-.23-.32l-1.41-.6Z"/><path class="cls-6" d="M22,19l1.18-.48a.76.76,0,0,1,.47.06c1.8.77,3.61,1.52,5.41,2.28.19.08.36.17.41.39v.28a2,2,0,0,1-.51.28q-6.64,2.8-13.29,5.61a2,2,0,0,1-1.84-.22L17,25.82l5.39-2.27q2.2-.94,4.43-1.86c.17-.08.31-.16.3-.36s-.15-.26-.31-.33Z"/></svg>