<svg id="Layer_1" data-name="Layer 1" xmlns="http://www.w3.org/2000/svg" viewBox="0 0 30 30"><defs><style>.cls-1{fill:#fda513;}.cls-2{fill:#60b6fe;}.cls-3{fill:#f6b557;}.cls-4{fill:#26a5fd;}.cls-5{fill:#e9f5fe;}.cls-6{fill:#d7ebfd;}.cls-7{fill:#f7bd58;}.cls-8{fill:#b2d9fd;}.cls-9{fill:#81ade2;}.cls-10{fill:#82aee2;}</style></defs><path class="cls-1" d="M25.76,29.5H2.54c-.32-.07-.65-.12-.83-.45a1.32,1.32,0,0,1-.2-.53V12.58a1.12,1.12,0,0,1,.28-.89.93.93,0,0,1,.63-.27c.59,0,1.17,0,1.76,0,1,0,2,.09,3,0a12.92,12.92,0,0,1,2-.09c.13,0,.27,0,.37.1s-.14.19-.25.2c-.3,0-.6,0-.9,0,.21.35.4.71.59,1.08s.47.88.69,1.32a.39.39,0,0,0,.4.25,7.58,7.58,0,0,0,.82,0,1.78,1.78,0,0,0,.69,0,5.19,5.19,0,0,1,.56,0h11a4.35,4.35,0,0,0,.51,0c.44.05.88,0,1.32,0a4.71,4.71,0,0,1,.65,0,.81.81,0,0,1,.22,0,3.88,3.88,0,0,1,.67.41,1.17,1.17,0,0,1,.33.76V28.1a1.87,1.87,0,0,1,0,.53A1,1,0,0,1,25.76,29.5Z"/><path class="cls-2" d="M4.17,11.5q0-4.92,0-9.84A1.1,1.1,0,0,1,4.81.5H20.49a1,1,0,0,1,.8,1.06c0,.39,0,.77,0,1.16a.52.52,0,0,1-.05.3c-.18.13-.25,0-.35-.12s-.2-.31-.43-.29h-12c-.14,0-.28,0-.42,0a4.71,4.71,0,0,0-1.59,0,1,1,0,0,0-.74.93,2.67,2.67,0,0,0,0,.4v7.06a.27.27,0,0,0,.31.31h.91a.4.4,0,0,1,.24.05.16.16,0,0,1,.06.08,14.06,14.06,0,0,1-1.59,0C5.12,11.53,4.64,11.51,4.17,11.5Z"/><path class="cls-3" d="M25.76,14.44a11.1,11.1,0,0,1,1.73,0,1.13,1.13,0,0,1,1,1c0,.12,0,.24,0,.37,0,4.06,0,8.13,0,12.19a1.35,1.35,0,0,1-.92,1.47H25.76a1.22,1.22,0,0,0,.91-1.38c0-4.07,0-8.14,0-12.2A1.38,1.38,0,0,0,25.76,14.44Z"/><path class="cls-4" d="M21.18,3c0-.47,0-.94,0-1.4A1.19,1.19,0,0,0,20.49.5h1.82A1.05,1.05,0,0,1,23,1.64c0,1.06,0,2.13,0,3.19-.13.08-.19,0-.25-.1l-1.4-1.4A.33.33,0,0,1,21.18,3Z"/><path class="cls-5" d="M7.19,11.5h0a.46.46,0,0,1-.11-.37c0-2.49,0-5,0-7.46a1.1,1.1,0,0,1,.83-1.14.11.11,0,0,1,.08,0,2.39,2.39,0,0,1,.53-.06H20.29l.31,0a.8.8,0,0,1,.13.54c0,1,0,2.09,0,3.13a1.12,1.12,0,0,0,1.18,1.18c.51,0,1,0,1.52,0,.14,0,.29,0,.4.12a.72.72,0,0,1,.07.41q0,3,0,6.09c0,.19.07.45-.28.44l-.39,0H11.51l-.15-.08a4.34,4.34,0,0,1-.57-1.06.18.18,0,0,1,.09-.24,1.94,1.94,0,0,1,.59,0H22.11a3.85,3.85,0,0,0,.48,0c.19,0,.36-.1.35-.33s-.17-.28-.36-.3H11a1.94,1.94,0,0,1-.59,0s-.11,0-.13,0a4.26,4.26,0,0,0-.8-.73,12.2,12.2,0,0,0-1.71,0A3.22,3.22,0,0,1,7.19,11.5Z"/><path class="cls-6" d="M23.62,14.4c.19,0,.16-.19.16-.32V7.47c0-.11.15-.12.26-.12q.6,0,1.2,0a.64.64,0,0,1,.34.12c0,.07,0,.15,0,.22V14.4C24.94,14.42,24.28,14.43,23.62,14.4Z"/><path class="cls-3" d="M10.83,13.13l.6,1.19c0,.15-.14.08-.21.08a.9.9,0,0,1-.4,0,3.83,3.83,0,0,1-1,0c-.13,0-.18-.09-.23-.19L8.47,12.12a1.35,1.35,0,0,0-.41-.58H9.52c.47,0,.65.35.85.69A1.09,1.09,0,0,1,10.83,13.13Z"/><path class="cls-7" d="M10.82,14.38c.2,0,.42.06.61-.06l.08.1A1.6,1.6,0,0,1,10.82,14.38Z"/><path class="cls-8" d="M25.58,7.47H21.85A1.19,1.19,0,0,1,20.6,6.23V2.49a5,5,0,0,1,.58.55L23,4.83l2.54,2.55Z"/><path class="cls-4" d="M8,2.53a1.26,1.26,0,0,0-.79,1.26q0,3.68,0,7.36c0,.11,0,.22,0,.34H5.79c-.18,0-.25-.06-.25-.25q0-3.83,0-7.66a1.12,1.12,0,0,1,1.13-1.1A5.56,5.56,0,0,1,8,2.53Z"/><path class="cls-9" d="M16.39,10.2H10.08a.4.4,0,0,1-.41-.39A.42.42,0,0,1,10,9.35a1.58,1.58,0,0,1,.31,0H22.43a1.58,1.58,0,0,1,.31,0,.42.42,0,0,1,.37.46.4.4,0,0,1-.41.39H16.39Z"/><path class="cls-10" d="M10.83,13.13l-.46-.9H22.6c.33,0,.51.16.51.44s-.17.43-.5.45H10.83Z"/></svg>