<svg id="Layer_1" data-name="Layer 1" xmlns="http://www.w3.org/2000/svg" viewBox="0 0 30 30"><defs><style>.cls-1{fill:#febbaa;}.cls-2{fill:#c3996c;}.cls-3{fill:#a87c50;}.cls-4{fill:#fda513;}.cls-5{fill:#8a5e3c;}.cls-6{fill:#d37607;}.cls-7{fill:#fe9378;}.cls-8{fill:#ec1c24;}</style></defs><path class="cls-1" d="M6.22,22.44l2.08-.52a.6.6,0,0,1,.32-.22,5.21,5.21,0,0,1,3.08-.11c1.72.51,3.46.95,5.19,1.41a1.6,1.6,0,0,1,.31.1,8.68,8.68,0,0,1,1,.27c.33.13.7.13,1,.29a1.25,1.25,0,0,1,.85,1,1.41,1.41,0,0,1-1.46,1.17,3,3,0,0,1-.74-.1l-4.95-1.32a1.23,1.23,0,0,0-.32-.07.35.35,0,0,0-.39.28.35.35,0,0,0,.22.4,3.31,3.31,0,0,0,.56.17l5,1.34a1.76,1.76,0,0,0,1,0,1.41,1.41,0,0,0,1-1.29,2.5,2.5,0,0,1,.07-.54.64.64,0,0,1,.34-.29l5.12-3a1.78,1.78,0,0,1,.81-.14A1.59,1.59,0,0,1,28,22.51a1.56,1.56,0,0,1-.8,1.8l-8.72,5a3.14,3.14,0,0,1-1.59.41H9.07a3.32,3.32,0,0,1-1.48-.35l-1.37-.68c-.14-.09-.14-.24-.14-.38,0-1.85,0-3.69,0-5.54C6.08,22.67,6.08,22.53,6.22,22.44Z"/><path class="cls-2" d="M17.2,23.21c-1.91-.51-3.83-1-5.74-1.53a3.93,3.93,0,0,0-2.15,0c-.33.1-.67.17-1,.26V14.6c.13-.17.33-.13.51-.13,1.89,0,3.78,0,5.67,0a.75.75,0,0,0,.78-.48c.49-1,1-2.07,1.53-3.09A1.57,1.57,0,0,1,17,10.6c.08-.08.15-.18.27-.06a2.85,2.85,0,0,1,.09.77V22.63C17.33,22.83,17.38,23.05,17.2,23.21Z"/><path class="cls-3" d="M17.2,23.21q0-6,0-12.06c0-.22,0-.44,0-.66h.06c.19.06.25.23.32.38.54,1.06,1.08,2.12,1.59,3.19a.68.68,0,0,0,.71.43c1.9,0,3.8,0,5.71,0,.18,0,.37,0,.51.13l0,.72a7.62,7.62,0,0,1-.25,1.9A8.92,8.92,0,0,1,19,23.44a5,5,0,0,1-.77,0Z"/><path class="cls-4" d="M9.35,10.41c0-.46,0-.93,0-1.4a2.26,2.26,0,0,0-.77-1.82A4.15,4.15,0,0,1,9.84.31c.06.08,0,.18,0,.27,0,1.1,0,2.2,0,3.3a.43.43,0,0,0,.22.42c.4.24.79.5,1.17.77a.27.27,0,0,0,.37,0c.38-.27.77-.53,1.16-.77A.42.42,0,0,0,13,3.87c0-1.18,0-2.37,0-3.58A3.31,3.31,0,0,1,14.16,1a4.17,4.17,0,0,1,.19,6.17,2.41,2.41,0,0,0-.82,2c0,.43,0,.87,0,1.3-.09.15-.23.15-.38.15H9.73C9.58,10.56,9.44,10.56,9.35,10.41Z"/><path class="cls-3" d="M9.35,10.41h4.18l3.66,0s0,0,0,0,0,0,0,0h0c-.32.52-.56,1.08-.83,1.62-.38.73-.74,1.46-1.09,2.19a.48.48,0,0,1-.51.31H6.28c0-.12,0-.2.08-.28.6-1.22,1.21-2.43,1.81-3.65a.38.38,0,0,1,.43-.25C8.85,10.43,9.1,10.42,9.35,10.41Z"/><path class="cls-5" d="M17.2,10.48v-.05l.65,0h7.07a.81.81,0,0,0,.22,0c.72-.14,1.1.16,1.38.83.43,1,1,2,1.48,3,.05.09.09.19.16.34h-8.5a.51.51,0,0,1-.54-.34c-.57-1.16-1.15-2.3-1.72-3.45C17.33,10.7,17.26,10.6,17.2,10.48Z"/><path class="cls-4" d="M5.16,29.23H2.26c-.2,0-.23-.07-.23-.25V22.17c0-.18,0-.26.23-.25h2.9a.43.43,0,0,1,.14.38q0,3.27,0,6.53A.44.44,0,0,1,5.16,29.23Z"/><path class="cls-5" d="M18.18,23.48c.59-.17,1.2-.24,1.79-.44a8.87,8.87,0,0,0,2.87-1.58,8.7,8.7,0,0,0,2.75-4A7.17,7.17,0,0,0,26,15.54c0-.07,0-.15,0-.22,0,1.9,0,3.81,0,5.71,0,.21,0,.34.27.31a3.61,3.61,0,0,0-1.36.6l-4.86,2.81c-.06,0-.09,0-.1-.09a1.4,1.4,0,0,0-.94-.92C18.78,23.64,18.48,23.56,18.18,23.48Z"/><path class="cls-6" d="M5.16,29.23v-7.3l1,0v7.34Z"/><path class="cls-7" d="M20,24.66l.1.09a5.48,5.48,0,0,1,0,.81,1.59,1.59,0,0,1-1.94,1.16c-1.88-.49-3.76-1-5.64-1.51a.54.54,0,0,1-.46-.61c.09-.33.36-.46.75-.36l4.85,1.31a3.58,3.58,0,0,0,1,.17A1.43,1.43,0,0,0,20,24.66Z"/><path class="cls-8" d="M26.08,9.12c0-.53,0-1.07,0-1.6,0-.19,0-.25-.24-.24H24.7c-.16,0-.35.09-.44-.15s.09-.29.19-.4c.27-.28.55-.56.84-.83.12-.11.13-.19,0-.31-.4-.38-.79-.78-1.18-1.18-.11-.12-.18-.12-.3,0-.31.33-.64.63-.95,1a.24.24,0,0,1-.31.07c-.13,0-.14-.14-.13-.26,0-.43,0-.87,0-1.3,0-.18,0-.25-.23-.25H20.56c-.2,0-.24.07-.24.25,0,.42,0,.85,0,1.27,0,.12,0,.23-.14.29s-.23,0-.33-.09l-.92-.93c-.1-.09-.16-.15-.29,0-.4.42-.81.82-1.22,1.23-.11.1-.09.16,0,.26.29.28.59.58.87.87.1.1.26.17.18.38s-.24.15-.38.15H16.9c-.18,0-.24,0-.24.24,0,.53,0,1.07,0,1.6,0,.19,0,.27.25.26.44,0,.87,0,1.31,0a.24.24,0,0,1,.26.14.26.26,0,0,1-.08.32l-.56.58a.39.39,0,0,0,.37.15h6.32a.4.4,0,0,0,.38-.15c-.19-.19-.37-.39-.57-.58a.26.26,0,0,1-.07-.32.23.23,0,0,1,.25-.14c.44,0,.87,0,1.31,0C26,9.39,26.08,9.31,26.08,9.12Zm-4.7.78a1.57,1.57,0,1,1,1.56-1.56A1.58,1.58,0,0,1,21.38,9.9Z"/></svg>