<svg id="Layer_1" data-name="Layer 1" xmlns="http://www.w3.org/2000/svg" xmlns:xlink="http://www.w3.org/1999/xlink" viewBox="0 0 200 200"><defs><style>.cls-1{opacity:0.5;fill:url(#linear-gradient);}.cls-2{fill:#bcbcbc;}.cls-3{fill:#8c872c;}.cls-4{fill:#aaa;}.cls-5{fill:#e0e0e0;}.cls-6{fill:#fff;}.cls-7,.cls-8,.cls-9{fill:none;stroke:#231f20;stroke-miterlimit:10;}.cls-7{stroke-width:0.7px;}.cls-8{stroke-width:0.56px;}.cls-9{stroke-width:0.65px;}.cls-10{fill:#ffd91f;}.cls-11{fill:#bfbf5c;}.cls-12{fill:#d19b9b;}.cls-13{fill:#822929;}.cls-14{fill:#231f20;}.cls-15{fill:#997456;}.cls-16{fill:#dee23b;}.cls-17{fill:#494949;}.cls-18{fill:red;}</style><linearGradient id="linear-gradient" x1="13.7" y1="100.05" x2="186.76" y2="100.05" gradientUnits="userSpaceOnUse"><stop offset="0" stop-color="#24b700"/><stop offset="1" stop-color="#15aaff"/></linearGradient></defs><title>CIP Award invitation</title><circle class="cls-1" cx="100.23" cy="100.05" r="86.53"/><path class="cls-2" d="M100,200.05a100,100,0,1,1,100-100A100.11,100.11,0,0,1,100,200.05ZM100,7.74a92.31,92.31,0,1,0,92.31,92.31A92.41,92.41,0,0,0,100,7.74Z"/><polygon class="cls-3" points="29.79 77.08 100.23 27.29 170.65 77.08 29.79 77.08"/><polygon class="cls-3" points="29.79 77.08 100.23 126.88 170.65 77.08 29.79 77.08"/><rect class="cls-4" x="62.51" y="47.91" width="68.99" height="70.54" rx="4.23"/><rect class="cls-5" x="63.91" y="48.75" width="68.99" height="70.54" rx="4.23"/><rect class="cls-6" x="65.35" y="49.89" width="68.99" height="77.97" rx="4.44"/><line class="cls-7" x1="72.79" y1="72.16" x2="126.91" y2="72.16"/><line class="cls-8" x1="117.26" y1="84.02" x2="82.44" y2="84.02"/><line class="cls-9" x1="77" y1="78.09" x2="122.69" y2="78.09"/><line class="cls-7" x1="72.79" y1="88.87" x2="126.91" y2="88.87"/><line class="cls-8" x1="117.26" y1="100.74" x2="82.44" y2="100.74"/><line class="cls-9" x1="77" y1="94.81" x2="122.69" y2="94.81"/><line class="cls-7" x1="72.79" y1="105.65" x2="126.91" y2="105.65"/><line class="cls-8" x1="117.26" y1="117.51" x2="82.44" y2="117.51"/><line class="cls-9" x1="77" y1="111.58" x2="122.69" y2="111.58"/><polygon class="cls-10" points="99.85 50.85 102.76 56.76 109.28 57.7 104.56 62.3 105.68 68.79 99.85 65.73 94.02 68.79 95.13 62.3 90.41 57.7 96.93 56.76 99.85 50.85"/><path class="cls-11" d="M29.79,77.08v64.73a5.63,5.63,0,0,0,5.63,5.63H165a5.63,5.63,0,0,0,5.63-5.63V77.08l-70.42,49.8Z"/><circle class="cls-12" cx="100.23" cy="124.45" r="12.87"/><circle class="cls-13" cx="100.23" cy="124.45" r="11.26"/><polygon class="cls-14" points="100.02 132.52 100.02 132.51 100.07 132.46 100.02 132.52"/><path class="cls-15" d="M94.32,118.75H96a0,0,0,0,1,0,0v4.76a0,0,0,0,1,0,0h0a1.67,1.67,0,0,1-1.67-1.67v-3.09A0,0,0,0,1,94.32,118.75Z"/><path class="cls-15" d="M104.45,118.75h1.67a0,0,0,0,1,0,0v3.09a1.67,1.67,0,0,1-1.67,1.67h0a0,0,0,0,1,0,0v-4.76A0,0,0,0,1,104.45,118.75Z"/><path class="cls-16" d="M103.42,130.1v.81H97v-.81a.75.75,0,0,1,.75-.75H99v-2.16a3.27,3.27,0,0,0,2.46,0v2.16h1.22A.74.74,0,0,1,103.42,130.1Z"/><path class="cls-17" d="M96.88,131.08h6.69a.79.79,0,0,1,.79.79v1a0,0,0,0,1,0,0H96.09a0,0,0,0,1,0,0v-1A.79.79,0,0,1,96.88,131.08Z"/><path class="cls-16" d="M96.26,117.28h7.93a0,0,0,0,1,0,0v5.88a4,4,0,0,1-4,4h0a4,4,0,0,1-4-4v-5.88a0,0,0,0,1,0,0Z"/><polygon class="cls-18" points="100.22 120.48 100.78 121.6 102.02 121.78 101.12 122.66 101.33 123.89 100.22 123.31 99.11 123.89 99.32 122.66 98.43 121.78 99.67 121.6 100.22 120.48"/></svg>