<svg id="Layer_1" data-name="Layer 1" xmlns="http://www.w3.org/2000/svg" xmlns:xlink="http://www.w3.org/1999/xlink" viewBox="0 0 200 200"><defs><style>.cls-1{opacity:0.5;fill:url(#linear-gradient);}.cls-2{fill:#bcbcbc;}.cls-3{fill:#e8eaf6;}.cls-4{fill:#c5cae9;}.cls-5{fill:#b71c1c;}.cls-6{fill:#d84315;}.cls-7{fill:#01579b;}.cls-8{fill:#ff8a65;}</style><linearGradient id="linear-gradient" x1="13.68" y1="100.69" x2="186.68" y2="100.69" gradientUnits="userSpaceOnUse"><stop offset="0" stop-color="#24b700"/><stop offset="1" stop-color="#15aaff"/></linearGradient></defs><title>Home</title><circle class="cls-1" cx="100.18" cy="100.69" r="86.5"/><path class="cls-2" d="M100.17,200.45a100,100,0,1,1,100-100A100.11,100.11,0,0,1,100.17,200.45Zm0-192.31a92.31,92.31,0,1,0,92.31,92.31A92.41,92.41,0,0,0,100.17,8.14Z"/><polygon class="cls-3" points="161.28 139.87 39.06 139.87 39.06 85.54 100.17 27.82 161.28 85.54 161.28 139.87"/><polygon class="cls-4" points="151.1 78.75 134.12 61.77 134.12 38.01 151.1 38.01 151.1 78.75"/><rect class="cls-4" x="39.06" y="139.87" width="122.23" height="16.98"/><polygon class="cls-5" points="100.17 22.05 32.27 85.2 39.06 92.67 100.17 35.97 161.28 92.67 168.07 85.2 100.17 22.05"/><rect class="cls-6" x="79.8" y="102.52" width="40.74" height="54.32"/><rect class="cls-7" x="89.98" y="65.17" width="20.37" height="20.37"/><path class="cls-8" d="M112.05,128a1.6,1.6,0,0,0-1.69,1.7v6.79a1.7,1.7,0,1,0,3.39,0v-6.79A1.61,1.61,0,0,0,112.05,128Z"/></svg>