<svg id="Layer_1" data-name="Layer 1" xmlns="http://www.w3.org/2000/svg" xmlns:xlink="http://www.w3.org/1999/xlink" viewBox="0 0 200 200"><defs><style>.cls-1{opacity:0.5;fill:url(#linear-gradient);}.cls-2{fill:#bcbcbc;}.cls-3{fill:#4f4b4c;}.cls-4{fill:#b2b2b2;}.cls-5{fill:#eaeaea;}.cls-6{fill:#545454;}</style><linearGradient id="linear-gradient" x1="13.47" y1="100.46" x2="186.47" y2="100.46" gradientUnits="userSpaceOnUse"><stop offset="0" stop-color="#24b700"/><stop offset="1" stop-color="#15aaff"/></linearGradient></defs><title>Profile</title><circle class="cls-1" cx="99.97" cy="100.46" r="86.5"/><path class="cls-2" d="M100,200.21a100,100,0,1,1,100-100A100.11,100.11,0,0,1,100,200.21Zm0-192.3a92.31,92.31,0,1,0,92.3,92.3A92.41,92.41,0,0,0,100,7.91Z"/><path class="cls-3" d="M100.29,75.6h0a50.1,50.1,0,0,1,50.1,50.1v40.86a4,4,0,0,1-4,4H54.19a4,4,0,0,1-4-4V125.69a50.1,50.1,0,0,1,50.1-50.1Z"/><path class="cls-4" d="M146.81,125.51v37.94a3.71,3.71,0,0,1-3.71,3.71H57.48a3.71,3.71,0,0,1-3.71-3.71V125.51A46.48,46.48,0,0,1,96.2,79.17c1.35-.12,2.71-.18,4.09-.18s2.6.05,3.88.17a46,46,0,0,1,12.4,2.76,46.56,46.56,0,0,1,30.24,43.59Z"/><circle class="cls-3" cx="100.19" cy="46.33" r="24.44"/><circle class="cls-5" cx="100.19" cy="46.33" r="19.69"/><path class="cls-5" d="M116.57,81.92l-12.4,53.56-4,14.65-4-14.65L83.67,82.05A46.23,46.23,0,0,1,96.2,79.17c1.35-.12,2.71-.18,4.09-.18s2.6.05,3.88.17A46,46,0,0,1,116.57,81.92Z"/><path class="cls-6" d="M104.85,81.92l-3.56,53.56-1.15,14.65L99,135.48l-3.6-53.43A7.47,7.47,0,0,1,99,79.17a4,4,0,0,1,1.18-.18,3.58,3.58,0,0,1,1.12.17A7.23,7.23,0,0,1,104.85,81.92Z"/></svg>