<svg id="Layer_1" data-name="Layer 1" xmlns="http://www.w3.org/2000/svg" xmlns:xlink="http://www.w3.org/1999/xlink" viewBox="0 0 200 200"><defs><style>.cls-1{opacity:0.5;fill:url(#linear-gradient);}.cls-2{fill:#bcbcbc;}.cls-3{fill:#d0dce7;}.cls-4{fill:#454fc9;}.cls-5{fill:#ff5987;}.cls-6{fill:#59d9a4;}.cls-7{fill:#a0b5c5;}.cls-8{fill:#a92ab7;}</style><linearGradient id="linear-gradient" x1="13.7" y1="100" x2="186.76" y2="100" gradientUnits="userSpaceOnUse"><stop offset="0" stop-color="#24b700"/><stop offset="1" stop-color="#15aaff"/></linearGradient></defs><title>Published Gazettes</title><circle class="cls-1" cx="100.23" cy="100" r="86.53"/><path class="cls-2" d="M100,200A100,100,0,1,1,200,100,100.11,100.11,0,0,1,100,200ZM100,7.69A92.31,92.31,0,1,0,192.31,100,92.41,92.41,0,0,0,100,7.69Z"/><g id="_598_Letter_News_Newspaper" data-name="598, Letter, News, Newspaper"><path class="cls-3" d="M146.4,41.22v96.15a21.24,21.24,0,0,1-21.24,21.24H59.34v0A11.22,11.22,0,0,0,69.89,147.4V41.22Z"/><path class="cls-4" d="M155.63,146.74a5.28,5.28,0,1,1-5.28,5.27A5.27,5.27,0,0,1,155.63,146.74Z"/><path class="cls-4" d="M47.47,42.54a6.6,6.6,0,1,1-6.59,6.59A6.6,6.6,0,0,1,47.47,42.54Z"/><rect class="cls-5" x="116.06" y="117.72" width="22.42" height="21.1"/><rect class="cls-6" x="77.81" y="57.05" width="30.34" height="23.74"/><path class="cls-7" d="M58,66.28V61H69.89V147.4a11.21,11.21,0,0,1-22.42,0V66.28Z"/><circle class="cls-8" cx="154.97" cy="60.35" r="1.98"/><circle class="cls-8" cx="152.33" cy="128.93" r="1.98"/><circle class="cls-8" cx="62.64" cy="45.84" r="1.98"/><circle class="cls-8" cx="41.54" cy="76.17" r="1.98"/><circle class="cls-8" cx="41.54" cy="151.35" r="1.98"/><path class="cls-7" d="M77.81,87.38h58a1.32,1.32,0,1,0,0-2.63h-58a1.32,1.32,0,1,0,0,2.63Z"/><path class="cls-7" d="M77.81,92.66h58a1.32,1.32,0,0,0,0-2.64h-58a1.32,1.32,0,0,0,0,2.64Z"/><path class="cls-7" d="M110.78,95.3h-33a1.32,1.32,0,0,0,0,2.64h33a1.32,1.32,0,0,0,0-2.64Z"/><path class="cls-7" d="M110.78,100.57h-33a1.32,1.32,0,0,0,0,2.64h33a1.32,1.32,0,0,0,0-2.64Z"/><path class="cls-7" d="M110.78,105.85h-33a1.32,1.32,0,0,0,0,2.64h33a1.32,1.32,0,0,0,0-2.64Z"/><path class="cls-7" d="M110.78,111.13h-33a1.32,1.32,0,1,0,0,2.63h33a1.32,1.32,0,1,0,0-2.63Z"/><path class="cls-7" d="M138.48,111.13H116.06a1.32,1.32,0,1,0,0,2.63h22.42a1.32,1.32,0,1,0,0-2.63Z"/><path class="cls-7" d="M138.48,105.85H116.06a1.32,1.32,0,0,0,0,2.64h22.42a1.32,1.32,0,1,0,0-2.64Z"/><path class="cls-7" d="M114.74,101.89a1.32,1.32,0,0,0,1.32,1.32h22.42a1.32,1.32,0,1,0,0-2.64H116.06A1.32,1.32,0,0,0,114.74,101.89Z"/></g></svg>