<svg id="Layer_1" data-name="Layer 1" xmlns="http://www.w3.org/2000/svg" xmlns:xlink="http://www.w3.org/1999/xlink" viewBox="0 0 200 200"><defs><style>.cls-1{opacity:0.5;fill:url(#linear-gradient);}.cls-2{fill:#bcbcbc;}.cls-3{fill:#9b4e4e;}.cls-4{fill:#231f20;}.cls-5{fill:#887fc6;}.cls-6{fill:#71ad66;}.cls-7{fill:#c6c071;}.cls-8{fill:#29292d;}</style><linearGradient id="linear-gradient" x1="13.46" y1="100" x2="186.53" y2="100" gradientUnits="userSpaceOnUse"><stop offset="0" stop-color="#24b700"/><stop offset="1" stop-color="#15aaff"/></linearGradient></defs><title>3-(Association)</title><circle class="cls-1" cx="100" cy="100" r="86.53"/><path class="cls-2" d="M100,200A100,100,0,1,1,200,100,100.11,100.11,0,0,1,100,200ZM100,7.69A92.31,92.31,0,1,0,192.31,100,92.41,92.41,0,0,0,100,7.69Z"/><path class="cls-3" d="M115.33,154.68l27.05.07h0V113.8a2.87,2.87,0,0,0-2.74-3.09h0a3,3,0,0,0-3,3v9.82h-1.22V107.29a2.92,2.92,0,0,0-2.89-2.94h0a2.92,2.92,0,0,0-2.9,2.94v16.26h-1.22V103a2.92,2.92,0,0,0-2.89-2.94h-.2a2.92,2.92,0,0,0-2.9,2.94v20.58h-1.27V105.67a2.92,2.92,0,0,0-2.9-2.94h0a3,3,0,0,0-3,3v29h0l-4.69-.57h0l-8.5-6.37a2.63,2.63,0,0,0-3.36.33h0a2.7,2.7,0,0,0,.19,3.94l11.36,11.46h0l5,11.1Z"/><path class="cls-4" d="M142.38,155.06,115.14,155l-.09-.18-5-11.05L98.7,132.34a3,3,0,0,1-1-2.13,3,3,0,0,1,.85-2.24,2.91,2.91,0,0,1,3.75-.38l8.45,6.33,4.26.52V105.78a3.34,3.34,0,0,1,3.3-3.36,3.24,3.24,0,0,1,3.21,3.25v17.57h.65V103a3.24,3.24,0,0,1,3.21-3.25h.2a3.23,3.23,0,0,1,3.2,3.25v20.27h.6V107.29a3.21,3.21,0,1,1,6.41,0v15.95h.6v-9.51a3.31,3.31,0,0,1,3.29-3.33,3.17,3.17,0,0,1,3.05,3.4v41.26Zm-26.85-.7,26.54.08V113.8a2.57,2.57,0,0,0-2.43-2.78,2.7,2.7,0,0,0-2.67,2.71v10.13h-1.84V107.29a2.59,2.59,0,1,0-5.17,0v16.57h-1.84V103a2.61,2.61,0,0,0-2.58-2.62h-.2a2.61,2.61,0,0,0-2.59,2.62v20.89h-1.89V105.67a2.6,2.6,0,0,0-2.59-2.62,2.7,2.7,0,0,0-2.68,2.73V135l-.26.19-.15,0-4.71-.57-8.57-6.42a2.31,2.31,0,0,0-3,.3,2.4,2.4,0,0,0,.17,3.49l11.45,11.56Z"/><path class="cls-5" d="M152.61,82.67l.07-27.05H111.73a2.87,2.87,0,0,0-3.09,2.74h0a3,3,0,0,0,3,3h9.82v1.22H105.22a2.91,2.91,0,0,0-2.94,2.89h0a2.92,2.92,0,0,0,2.94,2.9h16.26v1.22H100.91A2.91,2.91,0,0,0,98,72.46v.2a2.92,2.92,0,0,0,2.94,2.9h20.57v1.27H103.61a2.92,2.92,0,0,0-2.94,2.9h0a3,3,0,0,0,3,3h29l-.57,4.69h0l-6.37,8.5a2.61,2.61,0,0,0,.34,3.36h0a2.7,2.7,0,0,0,3.94-.19l11.45-11.36h0l11.1-5Z"/><path class="cls-4" d="M128,100.35a3,3,0,0,1-2.1-.86,2.93,2.93,0,0,1-.38-3.75l6.33-8.45.52-4.26H103.71a3.34,3.34,0,0,1-3.36-3.3,3.24,3.24,0,0,1,3.26-3.21h17.56v-.65H100.91a3.24,3.24,0,0,1-3.26-3.21v-.2a3.23,3.23,0,0,1,3.26-3.2h20.26v-.6h-16a3.21,3.21,0,1,1,0-6.41h16v-.6h-9.51a3.31,3.31,0,0,1-3.33-3.29,3.17,3.17,0,0,1,3.4-3H153v.31L152.92,83h-.24l-11,5L130.28,99.3a3,3,0,0,1-2.14,1ZM103.61,77.14A2.61,2.61,0,0,0,101,79.73a2.7,2.7,0,0,0,2.73,2.68H133v.31l-.58,4.81L126,96.1a2.31,2.31,0,0,0,.3,3,2.45,2.45,0,0,0,1.78.67,2.36,2.36,0,0,0,1.71-.84l11.56-11.45,10.92-5,.07-26.54H111.73A2.57,2.57,0,0,0,109,58.36,2.7,2.7,0,0,0,111.66,61h10.13v1.84H105.22a2.59,2.59,0,1,0,0,5.17h16.57v1.84H100.91a2.61,2.61,0,0,0-2.63,2.58v.2a2.61,2.61,0,0,0,2.63,2.59h20.88v1.89Z"/><path class="cls-6" d="M80.6,45.39l-27-.07h0V86.27a2.87,2.87,0,0,0,2.74,3.09h0a3,3,0,0,0,3-3V76.52h1.22V92.78a2.92,2.92,0,0,0,2.9,2.94h0a2.91,2.91,0,0,0,2.89-2.94V76.52H67.5V97.09A2.92,2.92,0,0,0,70.39,100h.21a2.91,2.91,0,0,0,2.89-2.94V76.52h1.27V94.39a2.92,2.92,0,0,0,2.9,2.94h0a3,3,0,0,0,3-3v-29h0l4.68.57h0l8.51,6.37a2.6,2.6,0,0,0,3.35-.34h0A2.7,2.7,0,0,0,97,67.94L85.65,56.49h0L80.6,45.39Z"/><path class="cls-4" d="M70.6,100.35h-.21a3.24,3.24,0,0,1-3.2-3.26V76.83h-.6v16a3.21,3.21,0,1,1-6.41,0v-16h-.6v9.51a3.31,3.31,0,0,1-3.29,3.33,3.17,3.17,0,0,1-3-3.4V45h.31l27.18.07.16.18,5,11.05L97.23,67.72a2.94,2.94,0,0,1,1,2.14,3,3,0,0,1-.85,2.24,2.93,2.93,0,0,1-3.75.38l-8.45-6.33L81,65.63V94.29a3.34,3.34,0,0,1-3.3,3.36,3.24,3.24,0,0,1-3.21-3.26V76.83H73.8V97.09A3.24,3.24,0,0,1,70.6,100.35ZM66,76.21h1.84V97.09a2.61,2.61,0,0,0,2.58,2.63h.21a2.61,2.61,0,0,0,2.58-2.63V76.21h1.89V94.39A2.61,2.61,0,0,0,77.66,97a2.7,2.7,0,0,0,2.68-2.73V65.11l.3-.19.11,0,4.71.58L94,72a2.32,2.32,0,0,0,3-.3,2.39,2.39,0,0,0,.67-1.78,2.36,2.36,0,0,0-.84-1.71L85.37,56.62l-5-10.92-26.54-.07V86.27a2.57,2.57,0,0,0,2.43,2.78A2.7,2.7,0,0,0,59,86.34V76.21H60.8V92.78a2.59,2.59,0,1,0,5.17,0Z"/><path class="cls-7" d="M43.32,117.4l-.07,27h41a2.87,2.87,0,0,0,3.09-2.74h0a3,3,0,0,0-3-3H74.45v-1.22H90.71a2.92,2.92,0,0,0,2.94-2.9h0a2.91,2.91,0,0,0-2.94-2.89H74.45V130.5H95A2.92,2.92,0,0,0,98,127.61v-.21A2.92,2.92,0,0,0,95,124.51H74.45v-1.27H92.33a2.92,2.92,0,0,0,2.94-2.9h0a3,3,0,0,0-3-3h-29l.57-4.68h0l6.37-8.51a2.61,2.61,0,0,0-.33-3.35h0a2.7,2.7,0,0,0-3.94.19L54.42,112.35h0l-11.1,5.05Z"/><path class="cls-4" d="M84.2,144.76H42.94v-.31L43,117.27l.18-.16,11.05-5,11.42-11.32a3,3,0,0,1,2.13-1,3,3,0,0,1,2.24.85,2.92,2.92,0,0,1,.38,3.75l-6.33,8.45L63.56,117H92.22a3.34,3.34,0,0,1,3.36,3.3,3.24,3.24,0,0,1-3.25,3.21H74.76v.65H95a3.23,3.23,0,0,1,3.25,3.2v.2A3.24,3.24,0,0,1,95,130.81H74.76v.6H90.71a3.21,3.21,0,1,1,0,6.41H74.76v.6h9.51a3.31,3.31,0,0,1,3.33,3.29A3.17,3.17,0,0,1,84.2,144.76Zm-40.64-.62H84.2A2.57,2.57,0,0,0,87,141.71,2.7,2.7,0,0,0,84.27,139H74.14V137.2H90.71a2.59,2.59,0,1,0,0-5.17H74.14v-1.84H95a2.61,2.61,0,0,0,2.62-2.59v-.2A2.61,2.61,0,0,0,95,124.82H74.14v-1.89H92.33A2.6,2.6,0,0,0,95,120.34a2.7,2.7,0,0,0-2.73-2.68H63.05l-.19-.26,0-.15.57-4.71L69.9,104a2.31,2.31,0,0,0-.3-3,2.41,2.41,0,0,0-1.78-.67,2.37,2.37,0,0,0-1.71.84L54.55,112.63l-10.92,5Z"/><rect class="cls-8" x="153.84" y="54.85" width="13.85" height="28.66"/><rect class="cls-8" x="121.92" y="148.28" width="13.85" height="28.66" transform="translate(291.45 33.76) rotate(90)"/><rect class="cls-8" x="60.08" y="22.79" width="13.85" height="28.66" transform="translate(104.12 -29.88) rotate(90)"/><rect class="cls-8" x="28.04" y="116.86" width="13.85" height="28.66" transform="translate(69.93 262.37) rotate(180)"/></svg>