<svg id="Layer_1" data-name="Layer 1" xmlns="http://www.w3.org/2000/svg" xmlns:xlink="http://www.w3.org/1999/xlink" viewBox="0 0 200 200"><defs><style>.cls-1{opacity:0.5;fill:url(#linear-gradient);}.cls-2{fill:#acb270;}.cls-3{fill:#bcbcbc;}.cls-4{fill:#ba3e1c;}.cls-5{fill:#9e9ce2;}.cls-6{fill:#ffe1ea;}.cls-7{fill:#ca75cc;}.cls-8{fill:#514d4e;}.cls-9{fill:#48a091;}.cls-10{fill:#7c3c4e;}</style><linearGradient id="linear-gradient" x1="13.58" y1="100.44" x2="186.64" y2="100.44" gradientUnits="userSpaceOnUse"><stop offset="0" stop-color="#24b700"/><stop offset="1" stop-color="#15aaff"/></linearGradient></defs><title>2-(Council Panel)</title><circle class="cls-1" cx="100.11" cy="100.44" r="86.53"/><path class="cls-2" d="M86.56,58.31h27.57a0,0,0,0,1,0,0V87.59a4,4,0,0,1-4,4H90.56a4,4,0,0,1-4-4V58.31A0,0,0,0,1,86.56,58.31Z"/><path class="cls-3" d="M100.11,200.44a100,100,0,1,1,100-100A100.11,100.11,0,0,1,100.11,200.44Zm0-192.31a92.31,92.31,0,1,0,92.31,92.31A92.41,92.41,0,0,0,100.11,8.13Z"/><path class="cls-4" d="M121.91,58.31h27.57a0,0,0,0,1,0,0V68a23.57,23.57,0,0,1-23.57,23.57h0a4,4,0,0,1-4-4V58.31A0,0,0,0,1,121.91,58.31Z"/><path class="cls-5" d="M51.44,58.31H79a0,0,0,0,1,0,0V87.59a4,4,0,0,1-4,4h0A23.57,23.57,0,0,1,51.44,68v-9.7A0,0,0,0,1,51.44,58.31Z"/><ellipse class="cls-6" cx="100.34" cy="110.44" rx="69.75" ry="24.58"/><path class="cls-7" d="M86.79,128.74h27.57a0,0,0,0,1,0,0V158a4,4,0,0,1-4,4H90.79a4,4,0,0,1-4-4V128.74A0,0,0,0,1,86.79,128.74Z"/><circle class="cls-8" cx="100.58" cy="119.12" r="8.77"/><path class="cls-9" d="M122.15,128.74h27.57a0,0,0,0,1,0,0v9.7A23.57,23.57,0,0,1,126.15,162h0a4,4,0,0,1-4-4V128.74A0,0,0,0,1,122.15,128.74Z"/><circle class="cls-8" cx="135.93" cy="119.12" r="8.77"/><path class="cls-10" d="M51.44,128.74H79a0,0,0,0,1,0,0V158a4,4,0,0,1-4,4h0a23.57,23.57,0,0,1-23.57-23.57v-9.7a0,0,0,0,1,0,0Z"/><circle class="cls-8" cx="65.22" cy="119.12" r="8.77"/><circle class="cls-8" cx="100.58" cy="48.7" r="8.77"/><circle class="cls-8" cx="135.7" cy="48.7" r="8.77"/><circle class="cls-8" cx="65.22" cy="48.7" r="8.77"/></svg>