<svg id="Layer_1" data-name="Layer 1" xmlns="http://www.w3.org/2000/svg" xmlns:xlink="http://www.w3.org/1999/xlink" viewBox="0 0 200 200"><defs><style>.cls-1{opacity:0.5;fill:url(#linear-gradient);}.cls-2{fill:#bcbcbc;}.cls-3{fill:#a58221;}.cls-4{fill:#333;}.cls-5{fill:#efe597;}.cls-6{fill:#231f20;}.cls-7{fill:none;stroke:#fff;stroke-miterlimit:10;stroke-width:0.99px;}</style><linearGradient id="linear-gradient" x1="13.58" y1="101.12" x2="186.65" y2="101.12" gradientUnits="userSpaceOnUse"><stop offset="0" stop-color="#24b700"/><stop offset="1" stop-color="#15aaff"/></linearGradient></defs><title>5-(Dealer Panel)</title><circle class="cls-1" cx="100.11" cy="101.12" r="86.53"/><path class="cls-2" d="M100,200A100,100,0,1,1,200,100,100.11,100.11,0,0,1,100,200ZM100,7.69A92.31,92.31,0,1,0,192.31,100,92.41,92.41,0,0,0,100,7.69Z"/><path class="cls-3" d="M132.25,156.33l-2.34,2.75a2.94,2.94,0,0,1-4,.45v0l-7.69-7-.25.27,2.27,2.07h0l.39.33,0,0,3.86,3.52a2.92,2.92,0,0,1-.31,3.37l-2.34,2.75a2.94,2.94,0,0,1-4.14.33l-3.53-3,0,0-3.68-3.35-.25.27,5.21,4.75a2.92,2.92,0,0,1-.49,3l-2.35,2.76a2.93,2.93,0,0,1-4.13.33L106.26,168l-.05,0-3.92-3.58-.24.28,3.31,3h0a2.93,2.93,0,0,1-.3,3.39l-2.35,2.75a2.93,2.93,0,0,1-4.13.33L97,172.7l-9.24-7.81L58.54,139.61,47.67,126.14l-3.25-3.25,17-17,3.45,3.44c5.76,4.08,14.33,3.4,14.33,3.4L88,109.51a7.48,7.48,0,0,1,6.34.59l5.44,3.2,10.37,7.3a37.29,37.29,0,0,1,15.56,26.33l6.18,5.27A2.93,2.93,0,0,1,132.25,156.33Z"/><rect class="cls-4" x="50.31" y="103.56" width="9.48" height="25.53" rx="1.1" transform="translate(98.37 -4.85) rotate(45)"/><path class="cls-5" d="M152,123.72c1,6.52-10.63,16.16-10.63,16.16-9,11.1-15.47,8.73-15.47,8.73C123,148.86,103.94,128,103.94,128c-2.5-1.74-12.84,3.5-12.84,3.5-9,0-7.33-7.61-7.33-7.61,2.28-8.35,15.53-13.59,15.53-13.59,9-2.5,24.07,4.84,24.09,4.85,9.86-10,13.59-9.29,13.59-9.29l2.31,0L154.94,121Z"/><path class="cls-5" d="M62.39,132.31h.69a4.4,4.4,0,0,1,4.4,4.4v14.88a2.93,2.93,0,0,1-2.93,2.93H60.92A2.93,2.93,0,0,1,58,151.59V136.71a4.4,4.4,0,0,1,4.4-4.4Z" transform="translate(119.78 -2.35) rotate(45)"/><path class="cls-5" d="M69.31,136.15H70a4.4,4.4,0,0,1,4.4,4.4v21a2.93,2.93,0,0,1-2.93,2.93H67.84a2.93,2.93,0,0,1-2.93-2.93v-21a4.4,4.4,0,0,1,4.4-4.4Z" transform="translate(126.7 -5.22) rotate(45)"/><path class="cls-5" d="M76.38,146.73h.69a4.4,4.4,0,0,1,4.4,4.4v14a2.93,2.93,0,0,1-2.93,2.93H74.92A2.93,2.93,0,0,1,72,165.17v-14a4.4,4.4,0,0,1,4.4-4.4Z" transform="translate(133.78 -8.15) rotate(45)"/><path class="cls-5" d="M83.43,156.44h.69a4.4,4.4,0,0,1,4.4,4.4v8.7a2.93,2.93,0,0,1-2.93,2.93H82A2.93,2.93,0,0,1,79,169.54v-8.7a4.4,4.4,0,0,1,4.4-4.4Z" transform="translate(140.82 -11.07) rotate(45)"/><rect class="cls-4" x="139.86" y="100.24" width="9.48" height="26.08" rx="1.1" transform="translate(326.28 86.12) rotate(133.42)"/><rect class="cls-6" x="61.98" y="44.11" width="76.6" height="53.79" rx="4"/><rect class="cls-7" x="63.96" y="46.28" width="72.64" height="50.23" rx="3.76"/><path class="cls-6" d="M116,30.4H84.57a2,2,0,0,0-2,2V41a2,2,0,0,0,1.79,2V34.73a1.9,1.9,0,0,1,1.9-1.9h28a1.9,1.9,0,0,1,1.89,1.9V43A2,2,0,0,0,118,41V32.4A2,2,0,0,0,116,30.4Z"/></svg>