<?xml version="1.0" encoding="utf-8"?>
<!-- Generator: Adobe Illustrator 23.1.0, SVG Export Plug-In . SVG Version: 6.00 Build 0)  -->
<svg version="1.1" id="Layer_1" xmlns="http://www.w3.org/2000/svg" xmlns:xlink="http://www.w3.org/1999/xlink" x="0px" y="0px"
	 viewBox="0 0 200 200" style="enable-background:new 0 0 200 200;" xml:space="preserve">
<style type="text/css">
	.st0{opacity:0.5;fill:url(#SVGID_1_);}
	.st1{opacity:0.5;fill:url(#SVGID_2_);}
	.st2{opacity:0.5;fill:url(#SVGID_3_);}
	.st3{opacity:0.5;fill:url(#SVGID_4_);}
	.st4{opacity:0.5;fill:url(#SVGID_5_);}
	.st5{opacity:0.5;fill:url(#SVGID_6_);}
	.st6{fill:#BCBCBC;}
	.st7{fill:#1FE544;}
	.st8{fill:#278441;}
	.st9{fill:#FFFFFF;}
	.st10{fill:#5E3E3E;}
	.st11{fill:#1E5E15;}
	.st12{fill:#49AA35;}
	.st13{fill:none;stroke:#5E3E3E;stroke-width:1.3647;stroke-miterlimit:10;}
	.st14{fill:#258739;}
	.st15{fill:#FF0000;}
	.st16{fill:#6D4FFC;}
	.st17{fill:#40E828;}
	.st18{fill:#F9EC00;}
	.st19{fill:#A58221;}
	.st20{fill:#333333;}
	.st21{fill:#EFE597;}
	.st22{fill:#258739;stroke:#5E3E3E;stroke-width:0.3221;stroke-miterlimit:10;}
	.st23{fill:#2E8947;}
	.st24{fill:#289DA3;}
	.st25{fill:#317ABC;}
	.st26{fill:#1936E0;}
	.st27{fill:#0ECC44;}
	.st28{fill:url(#SVGID_7_);}
	.st29{fill:url(#SVGID_8_);}
	.st30{fill:none;stroke:#231F20;stroke-width:1.1215;stroke-miterlimit:10;}
	.st31{fill:url(#SVGID_9_);}
	.st32{opacity:0.5;fill:url(#SVGID_10_);}
	.st33{fill:none;stroke:#231F20;stroke-width:0.5964;stroke-miterlimit:10;}
	.st34{fill:#997456;}
	.st35{fill:#DEE23B;}
	.st36{fill:#494949;}
</style>
<linearGradient id="SVGID_1_" gradientUnits="userSpaceOnUse" x1="13.0275" y1="101.1181" x2="186.0938" y2="101.1181">
	<stop  offset="0" style="stop-color:#24B700"/>
	<stop  offset="1" style="stop-color:#15AAFF"/>
</linearGradient>
<circle class="st0" cx="99.6" cy="101.1" r="86.5"/>
<g>
	<path class="st6" d="M100,201.1c-55.1,0-100-44.9-100-100s44.9-100,100-100s100,44.9,100,100S155.1,201.1,100,201.1z M100,8.8
		c-50.9,0-92.3,41.4-92.3,92.3s41.4,92.3,92.3,92.3s92.3-41.4,92.3-92.3S150.9,8.8,100,8.8z"/>
</g>
<g>
	<g>
		<g>
			<path d="M130.9,158.3H52.5c-1.3,0-2.3-1.1-2.3-2.3V43.2c0-1.3,1.1-2.3,2.3-2.3h78.4c1.3,0,2.3,1.1,2.3,2.3v112.8
				C133.3,157.2,132.2,158.3,130.9,158.3z M53.2,157.1h77c1,0,1.9-0.8,1.9-1.9V43.8c0-1-0.8-1.9-1.9-1.9h-77c-1,0-1.9,0.8-1.9,1.9
				v111.4C51.4,156.3,52.2,157.1,53.2,157.1z"/>
		</g>
		<g>
			<path d="M127,156.3H48.7c-1.3,0-2.3-1.1-2.3-2.3V41.1c0-1.3,1.1-2.3,2.3-2.3H127c1.3,0,2.3,1.1,2.3,2.3v112.8
				C129.4,155.2,128.3,156.3,127,156.3z M49.3,155.1h77c1,0,1.9-0.8,1.9-1.9V41.8c0-1-0.8-1.9-1.9-1.9h-77c-1,0-1.9,0.8-1.9,1.9
				v111.4C47.5,154.3,48.3,155.1,49.3,155.1z"/>
		</g>
		<g>
			<path d="M68.3,46.1h1.2v8.4h4v1h-5.2V46.1z"/>
			<path d="M76.1,46.1v9.4h-1.2v-9.4H76.1z"/>
			<path d="M84.8,55.2c-0.4,0.2-1.3,0.4-2.5,0.4c-2.7,0-4.6-1.7-4.6-4.8c0-2.9,2-4.9,4.9-4.9c1.2,0,1.9,0.3,2.2,0.4l-0.3,1
				C84,47.1,83.4,47,82.6,47c-2.2,0-3.7,1.4-3.7,3.9c0,2.3,1.3,3.8,3.6,3.8c0.7,0,1.5-0.2,2-0.4L84.8,55.2z"/>
			<path d="M91.2,51.1h-3.7v3.4h4.1v1h-5.3v-9.4h5.1v1h-3.9v3h3.7V51.1z"/>
			<path d="M93.2,55.5v-9.4h1.3l3,4.8c0.7,1.1,1.2,2.1,1.7,3.1l0,0c-0.1-1.3-0.1-2.4-0.1-3.9v-3.9h1.1v9.4H99l-3-4.8
				c-0.7-1-1.3-2.1-1.8-3.1l0,0c0.1,1.2,0.1,2.3,0.1,3.9v4H93.2z"/>
			<path d="M108.9,55.2c-0.4,0.2-1.3,0.4-2.5,0.4c-2.7,0-4.6-1.7-4.6-4.8c0-2.9,2-4.9,4.9-4.9c1.2,0,1.9,0.3,2.2,0.4l-0.3,1
				c-0.5-0.2-1.1-0.4-1.9-0.4c-2.2,0-3.7,1.4-3.7,3.9c0,2.3,1.3,3.8,3.6,3.8c0.7,0,1.5-0.2,2-0.4L108.9,55.2z"/>
			<path d="M115.3,51.1h-3.7v3.4h4.1v1h-5.3v-9.4h5.1v1h-3.9v3h3.7V51.1z"/>
		</g>
		<g>
			<rect x="51.4" y="60.1" width="81.3" height="0.6"/>
		</g>
		<g>
			<g>
				<path class="st23" d="M103.8,84.6H50.2V71.8h53.6c3.2,0,5.8,2.6,5.8,5.8v1.2C109.6,82,107,84.6,103.8,84.6z"/>
			</g>
		</g>
		<g>
			<g>
				<path class="st24" d="M115.6,112.9H50.2v-12.8h65.5c3.2,0,5.8,2.6,5.8,5.8v1.2C121.5,110.3,118.9,112.9,115.6,112.9z"/>
			</g>
		</g>
		<g>
			<g>
				<path class="st25" d="M94.3,140.4H50.2v-12.8h44.1c3.2,0,5.8,2.6,5.8,5.8v1.2C100.1,137.8,97.5,140.4,94.3,140.4z"/>
			</g>
		</g>
	</g>
	<g>
		<path d="M140.1,132.5l-1.6,1.6c-0.9,0.9-1.4,2.1-1.4,3.4v2.3c0,2.7-2.2,4.8-4.8,4.8h-2.3c-1.3,0-2.5,0.5-3.4,1.4l-1.6,1.6
			c-1.9,1.9-4.9,1.9-6.8,0l-1.6-1.6c-0.9-0.9-2.1-1.4-3.4-1.4h-2.3c-2.7,0-4.8-2.2-4.8-4.8v-2.3c0-1.3-0.5-2.5-1.4-3.4l-1.6-1.6
			c-1.9-1.9-1.9-4.9,0-6.8l1.6-1.6c0.9-0.9,1.4-2.1,1.4-3.4v-2.3c0-2.7,2.2-4.8,4.8-4.8h2.3c1.3,0,2.5-0.5,3.4-1.4l1.6-1.6
			c1.9-1.9,4.9-1.9,6.8,0l1.6,1.6c0.9,0.9,2.1,1.4,3.4,1.4h2.3c2.7,0,4.8,2.2,4.8,4.8v2.3c0,1.3,0.5,2.5,1.4,3.4l1.6,1.6
			C142,127.6,142,130.6,140.1,132.5z"/>
		<path class="st26" d="M138.3,133.7l-1.5,1.5c-0.8,0.8-1.3,1.9-1.3,3.1v2.1c0,2.4-2,4.4-4.4,4.4h-2.1c-1.2,0-2.3,0.5-3.1,1.3
			l-1.5,1.5c-1.7,1.7-4.5,1.7-6.2,0l-1.5-1.5c-0.8-0.8-1.9-1.3-3.1-1.3h-2.1c-2.4,0-4.4-2-4.4-4.4v-2.1c0-1.2-0.5-2.3-1.3-3.1
			l-1.5-1.5c-1.7-1.7-1.7-4.5,0-6.2l1.5-1.5c0.8-0.8,1.3-1.9,1.3-3.1v-2.1c0-2.4,2-4.4,4.4-4.4h2.1c1.2,0,2.3-0.5,3.1-1.3l1.5-1.5
			c1.7-1.7,4.5-1.7,6.2,0l1.5,1.5c0.8,0.8,1.9,1.3,3.1,1.3h2.1c2.4,0,4.4,2,4.4,4.4v2.1c0,1.2,0.5,2.3,1.3,3.1l1.5,1.5
			C140,129.2,140,132,138.3,133.7z"/>
		<path class="st9" d="M136,134.8l-1.3,1.3c-0.7,0.7-1.1,1.7-1.1,2.7v1.8c0,2.1-1.7,3.8-3.8,3.8h-1.8c-1,0-2,0.4-2.7,1.1l-1.3,1.3
			c-1.5,1.5-3.9,1.5-5.3,0l-1.3-1.3c-0.7-0.7-1.7-1.1-2.7-1.1h-1.8c-2.1,0-3.8-1.7-3.8-3.8v-1.8c0-1-0.4-2-1.1-2.7l-1.3-1.3
			c-1.5-1.5-1.5-3.9,0-5.3l1.3-1.3c0.7-0.7,1.1-1.7,1.1-2.7v-1.8c0-2.1,1.7-3.8,3.8-3.8h1.8c1,0,2-0.4,2.7-1.1l1.3-1.3
			c1.5-1.5,3.9-1.5,5.3,0l1.3,1.3c0.7,0.7,1.7,1.1,2.7,1.1h1.8c2.1,0,3.8,1.7,3.8,3.8v1.8c0,1,0.4,2,1.1,2.7l1.3,1.3
			C137.5,130.9,137.5,133.3,136,134.8z"/>
		<path d="M117,150.1l-14.5,24.6l-3.5-9.4l-9.6,1.6l14.4-24.4C106.5,145.3,111.1,149.2,117,150.1z"/>
		<path d="M125.9,150.1l14.5,24.6l3.5-9.4l9.6,1.6l-14.4-24.4C136.4,145.3,131.8,149.2,125.9,150.1z"/>
		<g>
			<polygon points="116.7,139.1 112.3,133 115.6,130.6 117.5,133.3 128.2,125 130.7,128.3 			"/>
		</g>
	</g>
</g>
</svg>
