<?xml version="1.0" encoding="utf-8"?>
<!-- Generator: Adobe Illustrator 23.1.0, SVG Export Plug-In . SVG Version: 6.00 Build 0)  -->
<svg version="1.1" id="Layer_1" xmlns="http://www.w3.org/2000/svg" xmlns:xlink="http://www.w3.org/1999/xlink" x="0px" y="0px"
	 viewBox="0 0 200 200" style="enable-background:new 0 0 200 200;" xml:space="preserve">
<style type="text/css">
	.st0{opacity:0.5;fill:url(#SVGID_1_);}
	.st1{opacity:0.5;fill:url(#SVGID_2_);}
	.st2{opacity:0.5;fill:url(#SVGID_3_);}
	.st3{opacity:0.5;fill:url(#SVGID_4_);}
	.st4{opacity:0.5;fill:url(#SVGID_5_);}
	.st5{opacity:0.5;fill:url(#SVGID_6_);}
	.st6{fill:#BCBCBC;}
	.st7{fill:#1FE544;}
	.st8{fill:#278441;}
	.st9{fill:#FFFFFF;}
	.st10{fill:#5E3E3E;}
	.st11{fill:#1E5E15;}
	.st12{fill:#49AA35;}
	.st13{fill:none;stroke:#5E3E3E;stroke-width:1.3647;stroke-miterlimit:10;}
	.st14{fill:#258739;}
	.st15{fill:#FF0000;}
	.st16{fill:#6D4FFC;}
	.st17{fill:#40E828;}
	.st18{fill:#F9EC00;}
	.st19{fill:#A58221;}
	.st20{fill:#333333;}
	.st21{fill:#EFE597;}
	.st22{fill:#258739;stroke:#5E3E3E;stroke-width:0.3221;stroke-miterlimit:10;}
	.st23{fill:#2E8947;}
	.st24{fill:#289DA3;}
	.st25{fill:#317ABC;}
	.st26{fill:#1936E0;}
	.st27{fill:#0ECC44;}
	.st28{fill:url(#SVGID_7_);}
	.st29{fill:url(#SVGID_8_);}
	.st30{fill:none;stroke:#231F20;stroke-width:1.1215;stroke-miterlimit:10;}
	.st31{fill:url(#SVGID_9_);}
	.st32{opacity:0.5;fill:url(#SVGID_10_);}
	.st33{fill:none;stroke:#231F20;stroke-width:0.5964;stroke-miterlimit:10;}
	.st34{fill:#997456;}
	.st35{fill:#DEE23B;}
	.st36{fill:#494949;}
</style>
<linearGradient id="SVGID_1_" gradientUnits="userSpaceOnUse" x1="13.0275" y1="99.9998" x2="186.0938" y2="99.9998">
	<stop  offset="0" style="stop-color:#24B700"/>
	<stop  offset="1" style="stop-color:#15AAFF"/>
</linearGradient>
<circle class="st0" cx="99.6" cy="100" r="86.5"/>
<g>
	<g>
		<path class="st6" d="M99.6,200.4c-55.1,0-100-44.9-100-100s44.9-100,100-100s100,44.9,100,100S154.7,200.4,99.6,200.4z M99.6,8.1
			c-50.9,0-92.3,41.4-92.3,92.3s41.4,92.3,92.3,92.3s92.3-41.4,92.3-92.3S150.5,8.1,99.6,8.1z"/>
	</g>
	<g>
		<g>
			<g>
				<path class="st7" d="M166.6,83.4c-31.6,79.2-67.7,87-78.5,87.4c1.2-1.1,2.2-2.5,3.1-4c2.7-1.8,5.2-3.6,7.8-5.6
					c4.5-3.4,8.8-7.2,12.9-11.1c1.8-1.8,3.5-3.5,5.1-5.4l0,0c0,0,0,0,0,0c0.7-0.1,1.4-0.2,2.1-0.3c1.3-0.1,2.6-0.2,3.9-0.2
					c2.6,0,5.2,0.4,7.8,0.8c-1.3-0.4-2.5-0.8-3.8-1c-1.3-0.2-2.6-0.3-4-0.4c-1.9,0-3.8,0.2-5.7,0.7c2-2.3,4-4.7,5.8-7.1
					c3.3-4.6,6.2-9.6,8.2-14.9c-1.4,2.5-2.6,5-4.3,7.3c-1.4,2.4-3.2,4.6-4.9,6.8c-3.5,4.4-7.3,8.5-11.3,12.5
					c-2.4,2.3-4.8,4.6-7.3,6.8l0,0c0.5-1.3,0.9-2.8,1.1-4.2c0.4-2,0.5-4.1,0.6-6.1c0-2-0.1-4.1-0.5-6.1c-0.1-1-0.4-2-0.6-3
					c-0.3-1-0.5-2-0.8-2.9c0.3,2,0.6,4,0.8,6c0.2,2,0.3,4,0.3,6c0,2-0.2,4-0.4,6c-0.2,1.5-0.5,3-0.8,4.5c-1.6,1.5-3.2,2.9-4.9,4.3
					c-2,1.7-4,3.3-6,4.9c6.9-13.3,6.2-36.1,5.6-44.9C123.4,98.3,165.6,83.7,166.6,83.4z"/>
			</g>
		</g>
		<g>
			<g>
				<path class="st8" d="M55.6,30c0,0-41.4,140.8,29.3,140.8C84.9,170.8,122.2,132.4,55.6,30z"/>
			</g>
			<g>
				<path class="st9" d="M85.3,150.4c0.2,6.8,0.2,13.6-0.5,20.4c-0.1-3.4-0.2-6.8-0.4-10.2c-0.2-3.4-0.4-6.8-0.7-10.2
					c-0.2-2.6-0.5-5.1-0.8-7.7c-1.2-1.4-2.5-2.8-3.9-4c-1.8-1.6-3.7-3.1-5.6-4.5c-2-1.4-4-2.7-6.1-3.9c-2.1-1.2-4.3-2.3-6.5-3.4
					c1.2,0.4,2.3,0.8,3.5,1.2c1.1,0.5,2.3,0.9,3.3,1.5c2.2,1.1,4.3,2.4,6.3,3.8c2,1.5,3.9,3,5.6,4.8c1.2,1.3,2.3,2.6,3.3,4
					c-0.4-4-1-7.9-1.6-11.9c-1.1-6.7-2.5-13.3-4.4-19.8c-1-3.2-2-6.5-3.3-9.6c-1.1-3.2-2.8-6.2-4.2-9.3c3.8,5.6,6.7,11.9,9,18.4
					c1.2,3.5,2.2,7,3,10.6c0.8-2.2,2-4.2,3.2-6.1c1-1.3,2-2.5,3.1-3.6c1.1-1.1,2.3-2.2,3.6-3.1c-2.2,2.2-4.4,4.5-6.2,7.1
					c-0.9,1.3-1.8,2.6-2.5,4c-0.4,0.8-0.8,1.5-1.1,2.3c0.7,2.9,1.3,5.8,1.8,8.8C84.4,136.8,85,143.5,85.3,150.4z"/>
			</g>
		</g>
		<g>
			<g>
				<g>
					<path class="st9" d="M120.7,83.4h-5.3c-1.1,0-2-0.9-2-2V32c0-1.1,0.9-2,2-2h5.3c1.1,0,2,0.9,2,2v49.4
						C122.7,82.5,121.8,83.4,120.7,83.4z"/>
				</g>
			</g>
			<g>
				<g>
					<path class="st9" d="M142.7,61.8H93.4c-1.1,0-2-0.9-2-2v-5.3c0-1.1,0.9-2,2-2h49.3c1.1,0,2,0.9,2,2v5.3
						C144.7,60.9,143.8,61.8,142.7,61.8z"/>
				</g>
			</g>
		</g>
	</g>
</g>
</svg>
